<?xml version="1.0" encoding="UTF-8" standalone="no"?><svg xmlns="http://www.w3.org/2000/svg" xmlns:xlink="http://www.w3.org/1999/xlink" contentScriptType="application/ecmascript" contentStyleType="text/css" height="1438px" preserveAspectRatio="none" style="width:996px;height:1438px;" version="1.1" viewBox="0 0 996 1438" width="996px" zoomAndPan="magnify"><defs><filter height="300%" id="fboi7qt3cnmy6" width="300%" x="-1" y="-1"><feGaussianBlur result="blurOut" stdDeviation="2.0"/><feColorMatrix in="blurOut" result="blurOut2" type="matrix" values="0 0 0 0 0 0 0 0 0 0 0 0 0 0 0 0 0 0 .4 0"/><feOffset dx="4.0" dy="4.0" in="blurOut2" result="blurOut3"/><feBlend in="SourceGraphic" in2="blurOut3" mode="normal"/></filter></defs><g><text fill="#000000" font-family="sans-serif" font-size="18" lengthAdjust="spacing" textLength="734" x="124.8968" y="17.4023">Overview of the Frinex build server when configured to deploy into a Docker Swarm.</text><!--MD5=[ba64deda70bd7e191c4b5aec232dcaa8]
cluster DatabaseHost--><polygon fill="#FFFFFF" filter="url(#fboi7qt3cnmy6)" points="734.7936,1040.1992,840.7936,1040.1992,847.7936,1062.6875,979.7936,1062.6875,979.7936,1431.1992,734.7936,1431.1992,734.7936,1040.1992" style="stroke:#000000;stroke-width:1.5;"/><line style="stroke:#000000;stroke-width:1.5;" x1="734.7936" x2="847.7936" y1="1062.6875" y2="1062.6875"/><text fill="#000000" font-family="sans-serif" font-size="14" font-weight="bold" lengthAdjust="spacing" textLength="100" x="738.7936" y="1055.7344">DatabaseHost</text><!--MD5=[064be63362e379d4513200c95fa5dcab]
cluster StagingPostgres--><path d="M766.7936,1109.1992 C766.7936,1099.1992 857.2936,1099.1992 857.2936,1099.1992 C857.2936,1099.1992 947.7936,1099.1992 947.7936,1109.1992 L947.7936,1227.1992 C947.7936,1237.1992 857.2936,1237.1992 857.2936,1237.1992 C857.2936,1237.1992 766.7936,1237.1992 766.7936,1227.1992 L766.7936,1109.1992 " fill="#FFFFFF" filter="url(#fboi7qt3cnmy6)" style="stroke:#000000;stroke-width:1.5;"/><path d="M766.7936,1109.1992 C766.7936,1119.1992 857.2936,1119.1992 857.2936,1119.1992 C857.2936,1119.1992 947.7936,1119.1992 947.7936,1109.1992 " fill="none" style="stroke:#000000;stroke-width:1.5;"/><text fill="#000000" font-family="sans-serif" font-size="14" font-weight="bold" lengthAdjust="spacing" textLength="117" x="798.7936" y="1134.7344">StagingPostgres</text><!--MD5=[a99d91227cccac036eca640259221bb0]
cluster ProductionPostgres--><path d="M766.7936,1271.1992 C766.7936,1261.1992 857.2936,1261.1992 857.2936,1261.1992 C857.2936,1261.1992 947.7936,1261.1992 947.7936,1271.1992 L947.7936,1389.1992 C947.7936,1399.1992 857.2936,1399.1992 857.2936,1399.1992 C857.2936,1399.1992 766.7936,1399.1992 766.7936,1389.1992 L766.7936,1271.1992 " fill="#FFFFFF" filter="url(#fboi7qt3cnmy6)" style="stroke:#000000;stroke-width:1.5;"/><path d="M766.7936,1271.1992 C766.7936,1281.1992 857.2936,1281.1992 857.2936,1281.1992 C857.2936,1281.1992 947.7936,1281.1992 947.7936,1271.1992 " fill="none" style="stroke:#000000;stroke-width:1.5;"/><text fill="#000000" font-family="sans-serif" font-size="14" font-weight="bold" lengthAdjust="spacing" textLength="141" x="786.7936" y="1296.7344">ProductionPostgres</text><!--MD5=[98b5b827ea6215f24ce66beb5909e67d]
cluster DockerSwarm--><polygon fill="#FFFFFF" filter="url(#fboi7qt3cnmy6)" points="323.7936,113.1992,427.7936,113.1992,434.7936,135.6875,944.7936,135.6875,944.7936,1008.1992,323.7936,1008.1992,323.7936,113.1992" style="stroke:#000000;stroke-width:1.5;"/><line style="stroke:#000000;stroke-width:1.5;" x1="323.7936" x2="434.7936" y1="135.6875" y2="135.6875"/><text fill="#000000" font-family="sans-serif" font-size="14" font-weight="bold" lengthAdjust="spacing" textLength="98" x="327.7936" y="128.7344">DockerSwarm</text><!--MD5=[5e20f5f91125398246b1e48522ba6bea]
cluster SwarmManager1--><polygon fill="#FFFFFF" filter="url(#fboi7qt3cnmy6)" points="347.7936,156.1992,471.7936,156.1992,478.7936,178.6875,920.7936,178.6875,920.7936,478.1992,347.7936,478.1992,347.7936,156.1992" style="stroke:#000000;stroke-width:1.5;"/><line style="stroke:#000000;stroke-width:1.5;" x1="347.7936" x2="478.7936" y1="178.6875" y2="178.6875"/><text fill="#000000" font-family="sans-serif" font-size="14" font-weight="bold" lengthAdjust="spacing" textLength="118" x="351.7936" y="171.7344">SwarmManager1</text><!--MD5=[6c6233d4cbe48ca8c6073cfbba7900ce]
cluster SwarmWorker2--><polygon fill="#FFFFFF" filter="url(#fboi7qt3cnmy6)" points="347.7936,502.1992,461.7936,502.1992,468.7936,524.6875,503.7936,524.6875,503.7936,731.1992,347.7936,731.1992,347.7936,502.1992" style="stroke:#000000;stroke-width:1.5;"/><line style="stroke:#000000;stroke-width:1.5;" x1="347.7936" x2="468.7936" y1="524.6875" y2="524.6875"/><text fill="#000000" font-family="sans-serif" font-size="14" font-weight="bold" lengthAdjust="spacing" textLength="108" x="351.7936" y="517.7344">SwarmWorker2</text><!--MD5=[835c88969957503822a51d3074b9b302]
cluster SwarmWorker3--><polygon fill="#FFFFFF" filter="url(#fboi7qt3cnmy6)" points="347.7936,755.1992,461.7936,755.1992,468.7936,777.6875,503.7936,777.6875,503.7936,984.1992,347.7936,984.1992,347.7936,755.1992" style="stroke:#000000;stroke-width:1.5;"/><line style="stroke:#000000;stroke-width:1.5;" x1="347.7936" x2="468.7936" y1="777.6875" y2="777.6875"/><text fill="#000000" font-family="sans-serif" font-size="14" font-weight="bold" lengthAdjust="spacing" textLength="108" x="351.7936" y="770.7344">SwarmWorker3</text><!--MD5=[691bb86bf8426993c6d44a6a97197240]
cluster WebAccess--><path d="M43.9146,338.3817 C57.6846,316.965 77.1309,323.5127 86.7995,342.7123 C95.9886,324.4478 108.711,324.4849 122.7012,337.1372 C132.5638,317.0213 150.7896,318.1933 162.891,334.6788 C176.1582,314.7577 191.577,313.392 203.5176,335.9476 C220.3472,315.8991 238.4365,320.8773 248.8707,342.8502 C261.7975,320.9272 281.1017,326.2856 291.7936,345.1992 C294.4728,345.3095 295.4735,347.091 293.7597,349.3049 C312.2444,359.612 309.0973,375.961 292.9006,385.4437 C312.9827,395.643 315.323,412.6315 298.5519,427.7534 C319.6913,436.3265 318.9615,454.3706 301.0917,465.5641 C319.1328,476.9481 315.028,490.6635 299.9321,500.9619 C319.787,515.0476 319.8715,533.1408 298.4019,545.8167 C316.2151,553.8535 318.8816,567.8363 303.7261,580.8793 C322.5222,593.0384 323.7101,608.6477 305.3306,622.2487 C320.2246,635.4854 320.4079,652.9155 298.4586,659.323 C315.4394,669.6781 315.1269,683.4447 299.7648,694.9843 C324.4386,710.7713 320.3643,725.2505 299.4535,740.7273 C315.8289,753.9837 316.0762,769.1743 295.701,778.8092 C315.2903,787.9407 314.1914,803.3273 297.9898,814.7388 C313.2262,827.2483 314.61,841.6392 294.4852,850.7027 C316.7593,868.7564 309.2607,888.1022 284.7936,896.1992 C288.1923,894.5627 289.8369,896.0892 290.0742,899.504 C277.6392,921.9104 262.3374,922.4076 248.5549,900.7745 C239.3824,922.8026 221.3223,928.3767 203.8184,909.9988 C192.0264,930.1987 177.8348,927.5146 164.7547,911.3837 C153.0906,926.1976 136.7941,929.6781 126.8193,909.5497 C109.515,925.8618 95.9172,926.1618 84.1631,903.4783 C61.6193,921.8693 41.0862,919.4081 31.7936,889.1992 C35.438,886.6078 38.4385,887.8508 38.5992,892.4818 C21.0362,885.4133 18.0064,867.5091 34.1576,856.3018 C14.1457,847.2542 16.4483,829.0021 31.9775,817.935 C13.0292,805.895 11.6026,792.4165 30.2054,778.6813 C9.124,762.9144 10.9414,749.6722 33.9122,737.9104 C13.9534,725.766 16.0033,708.984 34.3344,697.237 C14.2062,685.9929 18.7275,672.9967 33.1066,660.5964 C12.4086,650.2299 12.87,635.9692 31.1923,623.5845 C11.422,615.2792 9.3552,596.2404 28.34,585.0653 C6,569.7192 7.6914,554.3897 30.0507,540.7698 C12.9109,528.057 10.5046,512.5592 31.2994,501.0387 C12.4974,491.0917 14.3332,473.4457 30.6341,462.8867 C14.5625,450.0824 16.8428,439.3479 32.3851,428.1365 C15.463,417.848 13.8313,398.5229 32.2294,388.097 C8.9646,369.9098 15.9461,350.3201 38.7936,338.1992 C40.6316,335.6476 42.2452,336.2029 43.9146,338.3817 " fill="#FFFFFF" filter="url(#fboi7qt3cnmy6)" style="stroke:#000000;stroke-width:1.5;"/><text fill="#000000" font-family="sans-serif" font-size="14" font-weight="bold" lengthAdjust="spacing" textLength="78" x="122.7936" y="356.7344">WebAccess</text><!--MD5=[8ceecb7d5da98bfc6e6e5ec879446ac9]
entity S_Postgres--><rect fill="#FEFECE" filter="url(#fboi7qt3cnmy6)" height="71.4648" style="stroke:#000000;stroke-width:1.5;" width="149" x="782.7936" y="1149.6992"/><text fill="#000000" font-family="sans-serif" font-size="14" lengthAdjust="spacing" textLength="129" x="792.7936" y="1166.2344">S_ExperimentA_DB</text><line style="stroke:#000000;stroke-width:1.0;" x1="783.7936" x2="930.7936" y1="1169.1875" y2="1169.1875"/><text fill="#000000" font-family="sans-serif" font-size="14" lengthAdjust="spacing" textLength="127" x="792.7936" y="1186.7227">S_ExperimentB_DB</text><line style="stroke:#000000;stroke-width:1.0;" x1="783.7936" x2="930.7936" y1="1193.6758" y2="1193.6758"/><text fill="#000000" font-family="sans-serif" font-size="14" lengthAdjust="spacing" textLength="129" x="792.7936" y="1211.2109">S_ExperimentC_DB</text><!--MD5=[98469fa12ae22473b803c6e5fc8ad052]
entity P_Postgres--><rect fill="#FEFECE" filter="url(#fboi7qt3cnmy6)" height="71.4648" style="stroke:#000000;stroke-width:1.5;" width="149" x="782.7936" y="1311.6992"/><text fill="#000000" font-family="sans-serif" font-size="14" lengthAdjust="spacing" textLength="129" x="792.7936" y="1328.2344">P_ExperimentA_DB</text><line style="stroke:#000000;stroke-width:1.0;" x1="783.7936" x2="930.7936" y1="1331.1875" y2="1331.1875"/><text fill="#000000" font-family="sans-serif" font-size="14" lengthAdjust="spacing" textLength="127" x="792.7936" y="1348.7227">P_ExperimentB_DB</text><line style="stroke:#000000;stroke-width:1.0;" x1="783.7936" x2="930.7936" y1="1355.6758" y2="1355.6758"/><text fill="#000000" font-family="sans-serif" font-size="14" lengthAdjust="spacing" textLength="129" x="792.7936" y="1373.2109">P_ExperimentC_DB</text><!--MD5=[8508ee80f51d2ab8da2f58bb9291871b]
entity GIT--><ellipse cx="425.7936" cy="220.1992" fill="#FEFECE" filter="url(#fboi7qt3cnmy6)" rx="8" ry="8" style="stroke:#A80036;stroke-width:1.5;"/><text fill="#000000" font-family="sans-serif" font-size="14" lengthAdjust="spacing" textLength="23" x="414.2936" y="250.7344">GIT</text><!--MD5=[c212259dc7d3920de60008eab0b8d272]
entity BuildProcess--><rect fill="#FEFECE" filter="url(#fboi7qt3cnmy6)" height="46.4883" style="stroke:#A80036;stroke-width:1.5;" width="126" x="566.2936" y="197.1992"/><rect fill="#FEFECE" height="10" style="stroke:#A80036;stroke-width:1.5;" width="15" x="672.2936" y="202.1992"/><rect fill="#FEFECE" height="2" style="stroke:#A80036;stroke-width:1.5;" width="4" x="670.2936" y="204.1992"/><rect fill="#FEFECE" height="2" style="stroke:#A80036;stroke-width:1.5;" width="4" x="670.2936" y="208.1992"/><text fill="#000000" font-family="sans-serif" font-size="14" lengthAdjust="spacing" textLength="86" x="581.2936" y="230.7344">BuildProcess</text><!--MD5=[67cf98da98c31b99946e7c07ba74794c]
entity BuildListing--><ellipse cx="857.2936" cy="220.1992" fill="#FEFECE" filter="url(#fboi7qt3cnmy6)" rx="8" ry="8" style="stroke:#A80036;stroke-width:1.5;"/><text fill="#000000" font-family="sans-serif" font-size="14" lengthAdjust="spacing" textLength="79" x="817.7936" y="250.7344">BuildListing</text><!--MD5=[1c77f4a0ea9a9ba95c794d537e1302d6]
entity DatabaseManager--><rect fill="#FEFECE" filter="url(#fboi7qt3cnmy6)" height="46.4883" style="stroke:#A80036;stroke-width:1.5;" width="163" x="547.7936" y="347.1992"/><rect fill="#FEFECE" height="10" style="stroke:#A80036;stroke-width:1.5;" width="15" x="690.7936" y="352.1992"/><rect fill="#FEFECE" height="2" style="stroke:#A80036;stroke-width:1.5;" width="4" x="688.7936" y="354.1992"/><rect fill="#FEFECE" height="2" style="stroke:#A80036;stroke-width:1.5;" width="4" x="688.7936" y="358.1992"/><text fill="#000000" font-family="sans-serif" font-size="14" lengthAdjust="spacing" textLength="123" x="562.7936" y="380.7344">DatabaseManager</text><!--MD5=[4deb7753515de286d568fa33f0a2fe6f]
entity Registry--><rect fill="#FEFECE" filter="url(#fboi7qt3cnmy6)" height="46.4883" style="stroke:#A80036;stroke-width:1.5;" width="95" x="809.7936" y="284.1992"/><rect fill="#FEFECE" height="10" style="stroke:#A80036;stroke-width:1.5;" width="15" x="884.7936" y="289.1992"/><rect fill="#FEFECE" height="2" style="stroke:#A80036;stroke-width:1.5;" width="4" x="882.7936" y="291.1992"/><rect fill="#FEFECE" height="2" style="stroke:#A80036;stroke-width:1.5;" width="4" x="882.7936" y="295.1992"/><text fill="#000000" font-family="sans-serif" font-size="14" lengthAdjust="spacing" textLength="55" x="824.7936" y="317.7344">Registry</text><!--MD5=[1193c9a8d6f0375198f9af9c77ba891e]
entity Staging1--><rect fill="#FEFECE" filter="url(#fboi7qt3cnmy6)" height="71.4648" style="stroke:#000000;stroke-width:1.5;" width="124" x="363.7936" y="284.6992"/><text fill="#000000" font-family="sans-serif" font-size="14" lengthAdjust="spacing" textLength="104" x="373.7936" y="301.2344">S_ExperimentA</text><line style="stroke:#000000;stroke-width:1.0;" x1="364.7936" x2="486.7936" y1="304.1875" y2="304.1875"/><text fill="#000000" font-family="sans-serif" font-size="14" lengthAdjust="spacing" textLength="102" x="373.7936" y="321.7227">S_ExperimentB</text><line style="stroke:#000000;stroke-width:1.0;" x1="364.7936" x2="486.7936" y1="328.6758" y2="328.6758"/><text fill="#000000" font-family="sans-serif" font-size="14" lengthAdjust="spacing" textLength="104" x="373.7936" y="346.2109">S_ExperimentC</text><!--MD5=[a3ac6e966b653793622b6b1c4d449e70]
entity Production1--><rect fill="#FEFECE" filter="url(#fboi7qt3cnmy6)" height="71.4648" style="stroke:#000000;stroke-width:1.5;" width="124" x="363.7936" y="390.6992"/><text fill="#000000" font-family="sans-serif" font-size="14" lengthAdjust="spacing" textLength="104" x="373.7936" y="407.2344">P_ExperimentA</text><line style="stroke:#000000;stroke-width:1.0;" x1="364.7936" x2="486.7936" y1="410.1875" y2="410.1875"/><text fill="#000000" font-family="sans-serif" font-size="14" lengthAdjust="spacing" textLength="102" x="373.7936" y="427.7227">P_ExperimentB</text><line style="stroke:#000000;stroke-width:1.0;" x1="364.7936" x2="486.7936" y1="434.6758" y2="434.6758"/><text fill="#000000" font-family="sans-serif" font-size="14" lengthAdjust="spacing" textLength="104" x="373.7936" y="452.2109">P_ExperimentC</text><!--MD5=[d2e8e996c466aff469812eeb677edd62]
entity Staging2--><rect fill="#FEFECE" filter="url(#fboi7qt3cnmy6)" height="71.4648" style="stroke:#000000;stroke-width:1.5;" width="124" x="363.7936" y="537.6992"/><text fill="#000000" font-family="sans-serif" font-size="14" lengthAdjust="spacing" textLength="104" x="373.7936" y="554.2344">S_ExperimentA</text><line style="stroke:#000000;stroke-width:1.0;" x1="364.7936" x2="486.7936" y1="557.1875" y2="557.1875"/><text fill="#000000" font-family="sans-serif" font-size="14" lengthAdjust="spacing" textLength="102" x="373.7936" y="574.7227">S_ExperimentB</text><line style="stroke:#000000;stroke-width:1.0;" x1="364.7936" x2="486.7936" y1="581.6758" y2="581.6758"/><text fill="#000000" font-family="sans-serif" font-size="14" lengthAdjust="spacing" textLength="104" x="373.7936" y="599.2109">S_ExperimentC</text><!--MD5=[4b36d65e59fa3602a200de0f92fc92d3]
entity Production2--><rect fill="#FEFECE" filter="url(#fboi7qt3cnmy6)" height="71.4648" style="stroke:#000000;stroke-width:1.5;" width="124" x="363.7936" y="643.6992"/><text fill="#000000" font-family="sans-serif" font-size="14" lengthAdjust="spacing" textLength="104" x="373.7936" y="660.2344">P_ExperimentA</text><line style="stroke:#000000;stroke-width:1.0;" x1="364.7936" x2="486.7936" y1="663.1875" y2="663.1875"/><text fill="#000000" font-family="sans-serif" font-size="14" lengthAdjust="spacing" textLength="102" x="373.7936" y="680.7227">P_ExperimentB</text><line style="stroke:#000000;stroke-width:1.0;" x1="364.7936" x2="486.7936" y1="687.6758" y2="687.6758"/><text fill="#000000" font-family="sans-serif" font-size="14" lengthAdjust="spacing" textLength="104" x="373.7936" y="705.2109">P_ExperimentC</text><!--MD5=[63185a0ef5f89dfa96c1942dee6a0682]
entity Staging3--><rect fill="#FEFECE" filter="url(#fboi7qt3cnmy6)" height="71.4648" style="stroke:#000000;stroke-width:1.5;" width="124" x="363.7936" y="790.6992"/><text fill="#000000" font-family="sans-serif" font-size="14" lengthAdjust="spacing" textLength="104" x="373.7936" y="807.2344">S_ExperimentA</text><line style="stroke:#000000;stroke-width:1.0;" x1="364.7936" x2="486.7936" y1="810.1875" y2="810.1875"/><text fill="#000000" font-family="sans-serif" font-size="14" lengthAdjust="spacing" textLength="102" x="373.7936" y="827.7227">S_ExperimentB</text><line style="stroke:#000000;stroke-width:1.0;" x1="364.7936" x2="486.7936" y1="834.6758" y2="834.6758"/><text fill="#000000" font-family="sans-serif" font-size="14" lengthAdjust="spacing" textLength="104" x="373.7936" y="852.2109">S_ExperimentC</text><!--MD5=[990c4a3486d221c049f8fb4a2d2d02a0]
entity Production3--><rect fill="#FEFECE" filter="url(#fboi7qt3cnmy6)" height="71.4648" style="stroke:#000000;stroke-width:1.5;" width="124" x="363.7936" y="896.6992"/><text fill="#000000" font-family="sans-serif" font-size="14" lengthAdjust="spacing" textLength="104" x="373.7936" y="913.2344">P_ExperimentA</text><line style="stroke:#000000;stroke-width:1.0;" x1="364.7936" x2="486.7936" y1="916.1875" y2="916.1875"/><text fill="#000000" font-family="sans-serif" font-size="14" lengthAdjust="spacing" textLength="102" x="373.7936" y="933.7227">P_ExperimentB</text><line style="stroke:#000000;stroke-width:1.0;" x1="364.7936" x2="486.7936" y1="940.6758" y2="940.6758"/><text fill="#000000" font-family="sans-serif" font-size="14" lengthAdjust="spacing" textLength="104" x="373.7936" y="958.2109">P_ExperimentC</text><!--MD5=[02de4dbc9aa6c9b09573c257d7489a00]
entity S_ExperimentA_http_host_30001--><ellipse cx="161.7936" cy="580.1992" fill="#FEFECE" filter="url(#fboi7qt3cnmy6)" rx="8" ry="8" style="stroke:#A80036;stroke-width:1.5;"/><text fill="#000000" font-family="sans-serif" font-size="14" lengthAdjust="spacing" textLength="228" x="47.7936" y="610.7344">S_ExperimentA_http_host_30001</text><!--MD5=[fa1bf7e6f3dd5781c91dfba3fe5e76d6]
entity S_ExperimentB_http_host_30002--><ellipse cx="161.7936" cy="394.1992" fill="#FEFECE" filter="url(#fboi7qt3cnmy6)" rx="8" ry="8" style="stroke:#A80036;stroke-width:1.5;"/><text fill="#000000" font-family="sans-serif" font-size="14" lengthAdjust="spacing" textLength="226" x="48.7936" y="424.7344">S_ExperimentB_http_host_30002</text><!--MD5=[334567c045e8a79b5463330a728d0bdd]
entity S_ExperimentC_http_host_30003--><ellipse cx="161.7936" cy="487.1992" fill="#FEFECE" filter="url(#fboi7qt3cnmy6)" rx="8" ry="8" style="stroke:#A80036;stroke-width:1.5;"/><text fill="#000000" font-family="sans-serif" font-size="14" lengthAdjust="spacing" textLength="228" x="47.7936" y="517.7344">S_ExperimentC_http_host_30003</text><!--MD5=[1de92dae969d38733e5fc4698e2481b2]
entity P_ExperimentA_http_host_30004--><ellipse cx="161.7936" cy="859.1992" fill="#FEFECE" filter="url(#fboi7qt3cnmy6)" rx="8" ry="8" style="stroke:#A80036;stroke-width:1.5;"/><text fill="#000000" font-family="sans-serif" font-size="14" lengthAdjust="spacing" textLength="228" x="47.7936" y="889.7344">P_ExperimentA_http_host_30004</text><!--MD5=[40d25272b5f04aeb5be510efb8c5838e]
entity P_ExperimentB_http_host_30005--><ellipse cx="161.7936" cy="673.1992" fill="#FEFECE" filter="url(#fboi7qt3cnmy6)" rx="8" ry="8" style="stroke:#A80036;stroke-width:1.5;"/><text fill="#000000" font-family="sans-serif" font-size="14" lengthAdjust="spacing" textLength="226" x="48.7936" y="703.7344">P_ExperimentB_http_host_30005</text><!--MD5=[abdb096895e956dfe333a8479023d645]
entity P_ExperimentC_http_host_30006--><ellipse cx="161.7936" cy="766.1992" fill="#FEFECE" filter="url(#fboi7qt3cnmy6)" rx="8" ry="8" style="stroke:#A80036;stroke-width:1.5;"/><text fill="#000000" font-family="sans-serif" font-size="14" lengthAdjust="spacing" textLength="228" x="47.7936" y="796.7344">P_ExperimentC_http_host_30006</text><!--MD5=[8542d3c4667b51f1062a6130d5d31d3f]
entity XML--><ellipse cx="161.7936" cy="157.1992" fill="#FEFECE" filter="url(#fboi7qt3cnmy6)" rx="8" ry="8" style="stroke:#A80036;stroke-width:1.5;"/><text fill="#000000" font-family="sans-serif" font-size="14" lengthAdjust="spacing" textLength="28" x="147.7936" y="187.7344">XML</text><!--MD5=[c470d76c68afda2f5e9525cd4f85a320]
entity JSON--><ellipse cx="161.7936" cy="250.1992" fill="#FEFECE" filter="url(#fboi7qt3cnmy6)" rx="8" ry="8" style="stroke:#A80036;stroke-width:1.5;"/><text fill="#000000" font-family="sans-serif" font-size="14" lengthAdjust="spacing" textLength="33" x="145.2936" y="280.7344">JSON</text><!--MD5=[49f01e80b9b7ed5ac4c62e42b9014098]
entity ElectronApps--><ellipse cx="629.2936" cy="88.1992" fill="#FEFECE" filter="url(#fboi7qt3cnmy6)" rx="8" ry="8" style="stroke:#A80036;stroke-width:1.5;"/><text fill="#000000" font-family="sans-serif" font-size="14" lengthAdjust="spacing" textLength="91" x="583.7936" y="118.7344">ElectronApps</text><!--MD5=[907df72fbbecbad018b0540ed2bffab7]
entity MobileApps--><ellipse cx="629.2936" cy="35.1992" fill="#FEFECE" filter="url(#fboi7qt3cnmy6)" rx="8" ry="8" style="stroke:#A80036;stroke-width:1.5;"/><text fill="#000000" font-family="sans-serif" font-size="14" lengthAdjust="spacing" textLength="81" x="588.7936" y="65.7344">MobileApps</text><!--MD5=[559999df657540dbf8f2170dae676317]
link GIT to BuildProcess--><path d="M434.9436,220.1992 C456.8136,220.1992 518.3636,220.1992 566.2136,220.1992 " fill="none" id="GIT-BuildProcess" style="stroke:#A80036;stroke-width:1.0;"/><!--MD5=[e09825669451c5bf93a65731050d2015]
link BuildProcess to BuildListing--><path d="M692.3436,220.1992 C747.4936,220.1992 823.1136,220.1992 847.9936,220.1992 " fill="none" id="BuildProcess-BuildListing" style="stroke:#A80036;stroke-width:1.0;"/><!--MD5=[181f968f8fb0bd107c4540f24f8027fe]
link BuildProcess to DatabaseManager--><path d="M629.2936,243.4892 C629.2936,276.2592 629.2936,309.0292 629.2936,341.7992 " fill="none" id="BuildProcess-to-DatabaseManager" style="stroke:#A80036;stroke-width:1.0;"/><polygon fill="#A80036" points="629.2936,347.0592,633.2936,338.0592,629.2936,342.0592,625.2936,338.0592,629.2936,347.0592" style="stroke:#A80036;stroke-width:1.0;"/><!--MD5=[bb276dd4f69f5d8a00634799034fcba5]
link DatabaseManager to DatabaseHost--><path d="M669.5236,393.2492 C684.6836,404.0992 700.7636,418.3792 710.7936,435.1992 C720.7536,451.8992 714.8036,459.1692 718.7936,478.1992 C746.1536,608.7192 780.2086,754.6967 807.5811,868.673 C821.2674,925.6611 833.283,974.6489 841.9558,1009.7041 C844.124,1018.4679 846.0833,1026.3608 847.8075,1033.2904 C848.2386,1035.0227 848.655,1036.6949 849.0562,1038.3054 C849.1565,1038.708 849.2559,1039.1068 849.3543,1039.5017 " fill="none" id="DatabaseManager-to-DatabaseHost" style="stroke:#A80036;stroke-width:2.0;"/><polygon fill="#A80036" points="849.3543,1039.5017,851.059,1029.8015,848.1451,1034.6501,843.2965,1031.7362,849.3543,1039.5017" style="stroke:#A80036;stroke-width:2.0;"/><!--MD5=[63eb0d948ea918f7e4e459345eeb14b5]
link Staging1 to S_Postgres--><path d="M487.9336,355.8092 C496.1736,361.3292 504.3436,367.1992 511.7936,373.1992 C529.6536,387.5992 530.6736,394.9192 547.7936,410.1992 C616.1136,471.1692 669.9036,454.2692 710.7936,536.1992 C725.9236,566.5192 698.1836,1119.2992 718.7936,1146.1992 C732.8936,1164.5992 755.0136,1174.7692 777.4336,1180.2592 " fill="none" id="Staging1-to-S_Postgres" style="stroke:#A80036;stroke-width:1.0;"/><polygon fill="#A80036" points="782.5136,1181.4192,774.6322,1175.5131,777.6395,1180.3043,772.8483,1183.3117,782.5136,1181.4192" style="stroke:#A80036;stroke-width:1.0;"/><!--MD5=[951a6c9be172a66cc53ccb0ac1d71fb3]
link Production1 to P_Postgres--><path d="M463.7836,461.7892 C479.9636,478.7092 498.2936,499.8792 511.7936,521.1992 C633.5836,713.5492 662.0236,770.8192 710.7936,993.1992 C716.6036,1019.6992 706.6436,1212.9492 718.7936,1237.1992 C733.4836,1266.5192 759.9936,1290.5792 785.8536,1308.6392 " fill="none" id="Production1-to-P_Postgres" style="stroke:#A80036;stroke-width:1.0;"/><polygon fill="#A80036" points="789.9936,1311.4892,784.8298,1303.1026,785.8689,1308.6632,780.3082,1309.7023,789.9936,1311.4892" style="stroke:#A80036;stroke-width:1.0;"/><!--MD5=[3d4f8b48770b10a181631397f623ec54]
link Staging2 to S_Postgres--><path d="M487.8236,608.1092 C496.1636,613.7692 504.3936,619.8692 511.7936,626.1992 C614.5236,714.0592 661.8636,730.1892 710.7936,856.1992 C716.6236,871.2192 708.9036,1133.4792 718.7936,1146.1992 C733.0236,1164.4992 755.1836,1174.6392 777.5936,1180.1292 " fill="none" id="Staging2-to-S_Postgres" style="stroke:#A80036;stroke-width:1.0;"/><polygon fill="#A80036" points="782.6736,1181.2992,774.7922,1175.3931,777.7995,1180.1843,773.0083,1183.1917,782.6736,1181.2992" style="stroke:#A80036;stroke-width:1.0;"/><!--MD5=[0e03b52159eb3c89e9374c8563c82168]
link Production2 to P_Postgres--><path d="M463.8036,714.7692 C479.9936,731.6892 498.3236,752.8692 511.7936,774.1992 C533.9136,809.2392 530.3336,822.6192 547.7936,860.1992 C614.7336,1004.2192 663.2236,1026.6692 710.7936,1178.1992 C718.7236,1203.4492 705.7536,1214.1792 718.7936,1237.1992 C735.2436,1266.2392 762.6636,1290.5092 788.7136,1308.7992 " fill="none" id="Production2-to-P_Postgres" style="stroke:#A80036;stroke-width:1.0;"/><polygon fill="#A80036" points="792.8736,1311.6892,787.7432,1303.2822,788.7601,1308.8469,783.1954,1309.8638,792.8736,1311.6892" style="stroke:#A80036;stroke-width:1.0;"/><!--MD5=[98fa29250d6390155fa1d361871969b2]
link Staging3 to S_Postgres--><path d="M488.1336,860.7492 C496.4336,866.4692 504.5636,872.6692 511.7936,879.1992 C623.2436,979.8292 594.3436,1062.1792 718.7936,1146.1992 C736.3136,1158.0292 757.3936,1166.2992 777.7236,1172.0792 " fill="none" id="Staging3-to-S_Postgres" style="stroke:#A80036;stroke-width:1.0;"/><polygon fill="#A80036" points="782.5936,1173.4192,774.9773,1167.1749,777.7728,1172.0928,772.855,1174.8883,782.5936,1173.4192" style="stroke:#A80036;stroke-width:1.0;"/><!--MD5=[d2033794474637c911f0647b91857d25]
link Production3 to P_Postgres--><path d="M441.1036,967.9492 C460.3336,1012.7392 497.9536,1090.0792 547.7936,1143.1992 C614.7336,1214.5292 711.2536,1273.2092 778.4436,1309.0292 " fill="none" id="Production3-to-P_Postgres" style="stroke:#A80036;stroke-width:1.0;"/><polygon fill="#A80036" points="783.2236,1311.5692,777.1492,1303.8168,778.8071,1309.2252,773.3987,1310.8832,783.2236,1311.5692" style="stroke:#A80036;stroke-width:1.0;"/><!--MD5=[473a9bd311ff378df3b944c922087996]
link XML to GIT--><path d="M170.9236,159.1492 C208.4336,168.1792 365.0036,205.8192 411.6336,217.0392 " fill="none" id="XML-to-GIT" style="stroke:#A80036;stroke-width:1.0;"/><polygon fill="#A80036" points="416.7636,218.2692,408.9357,212.2924,411.8998,217.1105,407.0817,220.0746,416.7636,218.2692" style="stroke:#A80036;stroke-width:1.0;"/><!--MD5=[3d715daef7e68d317b0486f27a994155]
link JSON to GIT--><path d="M170.9236,249.2692 C208.4336,244.9692 365.0036,227.0492 411.6336,221.7092 " fill="none" id="JSON-to-GIT" style="stroke:#A80036;stroke-width:1.0;"/><polygon fill="#A80036" points="416.7636,221.1192,407.3658,218.1731,411.7964,221.6902,408.2793,226.1208,416.7636,221.1192" style="stroke:#A80036;stroke-width:1.0;"/><!--MD5=[f27179d821286a1570e6a2e46eb28302]
link BuildProcess to ElectronApps--><path d="M629.2936,196.9992 C629.2936,165.5292 629.2936,134.0692 629.2936,102.5992 " fill="none" id="BuildProcess-to-ElectronApps" style="stroke:#A80036;stroke-width:1.0;"/><polygon fill="#A80036" points="629.2936,97.5492,625.2936,106.5492,629.2936,102.5492,633.2936,106.5492,629.2936,97.5492" style="stroke:#A80036;stroke-width:1.0;"/><!--MD5=[1da6a94ac552664254cede36e964ce73]
link BuildProcess to MobileApps--><path d="M593.8536,197.0592 C557.9936,170.4892 510.3936,124.6192 529.7936,78.6992 C543.6436,45.9192 591.1436,37.8292 615.1636,35.8392 " fill="none" id="BuildProcess-to-MobileApps" style="stroke:#A80036;stroke-width:1.0;"/><polygon fill="#A80036" points="620.1836,35.4892,610.9304,32.1161,615.1954,35.8322,611.4793,40.0972,620.1836,35.4892" style="stroke:#A80036;stroke-width:1.0;"/><!--MD5=[6eac4f028760ff8ed72dc70de78a3035]
link BuildProcess to Registry--><path d="M670.9536,243.3892 C685.7236,251.2592 702.7436,259.6992 718.7936,266.1992 C746.5036,277.4092 778.4436,287.1192 804.5636,294.2792 " fill="none" id="BuildProcess-to-Registry" style="stroke:#A80036;stroke-width:1.0;"/><polygon fill="#A80036" points="809.7136,295.6692,802.0801,289.4459,804.8892,294.356,799.979,297.1651,809.7136,295.6692" style="stroke:#A80036;stroke-width:1.0;"/><!--MD5=[7f71eeb16753e52542075548103f3608]
link S_ExperimentA_http_host_30001 to Staging1--><path d="M171.1436,580.4592 C196.6236,580.7392 273.6836,577.7392 307.7936,533.1992 C329.4436,504.9392 296.1636,402.8992 315.7936,373.1992 C326.0336,357.7192 342.1536,346.6092 358.8936,338.6992 " fill="none" id="S_ExperimentA_http_host_30001-to-Staging1" style="stroke:#A80036;stroke-width:1.0;"/><polygon fill="#A80036" points="363.6236,336.5592,353.7751,336.642,359.0718,338.6282,357.0856,343.9249,363.6236,336.5592" style="stroke:#A80036;stroke-width:1.0;"/><!--MD5=[03565daf6768686a26b137aec76a0de0]
link S_ExperimentA_http_host_30001 to Staging2--><path d="M170.9236,579.9792 C198.9136,579.2392 293.1736,576.7192 358.5936,574.9692 " fill="none" id="S_ExperimentA_http_host_30001-to-Staging2" style="stroke:#A80036;stroke-width:1.0;"/><polygon fill="#A80036" points="363.6536,574.8292,354.5431,571.0879,358.6557,574.972,354.7716,579.0846,363.6536,574.8292" style="stroke:#A80036;stroke-width:1.0;"/><!--MD5=[5a6467091b1d6f048665e6bb51752857]
link S_ExperimentA_http_host_30001 to Staging3--><path d="M171.0936,579.9192 C196.4036,579.5692 273.0336,582.3092 307.7936,626.1992 C322.3236,644.5392 305.3036,710.2792 315.7936,731.1992 C326.7836,753.0992 345.2336,772.1092 363.8736,787.2592 " fill="none" id="S_ExperimentA_http_host_30001-to-Staging3" style="stroke:#A80036;stroke-width:1.0;"/><polygon fill="#A80036" points="368.0936,790.6192,363.5412,781.8856,364.181,787.5062,358.5604,788.1459,368.0936,790.6192" style="stroke:#A80036;stroke-width:1.0;"/><!--MD5=[479115b873827d7957dbf094152e6c52]
link S_ExperimentB_http_host_30002 to Staging1--><path d="M170.9236,391.8992 C198.9136,383.9992 293.1736,357.3792 358.5936,338.8992 " fill="none" id="S_ExperimentB_http_host_30002-to-Staging1" style="stroke:#A80036;stroke-width:1.0;"/><polygon fill="#A80036" points="363.6536,337.4692,353.906,336.0612,358.8412,338.8258,356.0766,343.7611,363.6536,337.4692" style="stroke:#A80036;stroke-width:1.0;"/><!--MD5=[04d3e0b2b71457f3590a6a7e451c0561]
link S_ExperimentB_http_host_30002 to Staging2--><path d="M170.8436,394.1292 C195.4436,394.3792 270.2236,398.6892 307.7936,440.1992 C319.3736,452.9992 307.0536,463.3092 315.7936,478.1992 C328.4336,499.7392 347.7036,518.8792 366.5536,534.2392 " fill="none" id="S_ExperimentB_http_host_30002-to-Staging2" style="stroke:#A80036;stroke-width:1.0;"/><polygon fill="#A80036" points="370.8136,537.6592,366.2807,528.9155,366.9079,534.5375,361.2859,535.1647,370.8136,537.6592" style="stroke:#A80036;stroke-width:1.0;"/><!--MD5=[41ddee26338ec3c5088a1238fca05258]
link S_ExperimentB_http_host_30002 to Staging3--><path d="M170.8236,393.8492 C196.0436,393.2592 273.9536,395.2692 307.7936,440.1992 C327.2536,466.0392 301.9936,701.9392 315.7936,731.1992 C326.1936,753.2592 344.4036,772.2592 362.9936,787.3392 " fill="none" id="S_ExperimentB_http_host_30002-to-Staging3" style="stroke:#A80036;stroke-width:1.0;"/><polygon fill="#A80036" points="367.2136,790.6892,362.6612,781.9556,363.301,787.5762,357.6804,788.2159,367.2136,790.6892" style="stroke:#A80036;stroke-width:1.0;"/><!--MD5=[db420619419ab87a6aed14cd1319415f]
link S_ExperimentC_http_host_30003 to Staging1--><path d="M171.0136,487.3492 C196.1036,487.3292 272.1636,483.5392 307.7936,440.1992 C326.8436,417.0292 298.4036,397.6292 315.7936,373.1992 C326.4436,358.2292 342.5036,347.3092 359.0436,339.4192 " fill="none" id="S_ExperimentC_http_host_30003-to-Staging1" style="stroke:#A80036;stroke-width:1.0;"/><polygon fill="#A80036" points="363.7236,337.2692,353.8755,337.3892,359.1797,339.3554,357.2135,344.6596,363.7236,337.2692" style="stroke:#A80036;stroke-width:1.0;"/><!--MD5=[f59a995a6e391a9815adda26cabe23eb]
link S_ExperimentC_http_host_30003 to Staging2--><path d="M170.9936,489.7292 C193.1136,496.5692 255.8736,516.0892 307.7936,533.1992 C324.2336,538.6192 341.9336,544.5892 358.4636,550.2392 " fill="none" id="S_ExperimentC_http_host_30003-to-Staging2" style="stroke:#A80036;stroke-width:1.0;"/><polygon fill="#A80036" points="363.5536,551.9792,356.3286,545.286,358.8218,550.3638,353.744,552.857,363.5536,551.9792" style="stroke:#A80036;stroke-width:1.0;"/><!--MD5=[fe385450a8af8e0fb9229768d528ec03]
link S_ExperimentC_http_host_30003 to Staging3--><path d="M170.8036,486.8692 C195.9436,486.3292 273.6636,488.4892 307.7936,533.1992 C321.1536,550.6992 306.2736,711.3492 315.7936,731.1992 C326.3436,753.1892 344.5736,772.1692 363.1536,787.2592 " fill="none" id="S_ExperimentC_http_host_30003-to-Staging3" style="stroke:#A80036;stroke-width:1.0;"/><polygon fill="#A80036" points="367.3736,790.6192,362.8017,781.8959,363.454,787.515,357.8349,788.1673,367.3736,790.6192" style="stroke:#A80036;stroke-width:1.0;"/><!--MD5=[af3ebb19cc7a7a8a35029c5dad135902]
link P_ExperimentA_http_host_30004 to Production1--><path d="M170.8336,859.4892 C196.0736,859.8992 274.0236,857.3292 307.7936,812.1992 C327.1736,786.2992 301.9936,550.4592 315.7936,521.1992 C326.1936,499.1392 344.4036,480.1392 362.9936,465.0592 " fill="none" id="P_ExperimentA_http_host_30004-to-Production1" style="stroke:#A80036;stroke-width:1.0;"/><polygon fill="#A80036" points="367.2136,461.7092,357.6804,464.1825,363.301,464.8222,362.6612,470.4428,367.2136,461.7092" style="stroke:#A80036;stroke-width:1.0;"/><!--MD5=[c9f8e95093c1762e0b0804a5a19fb6c2]
link P_ExperimentA_http_host_30004 to Production2--><path d="M170.8436,859.2092 C195.4636,858.7692 270.2836,853.9092 307.7936,812.1992 C319.3336,799.3692 307.0536,789.0892 315.7936,774.1992 C328.4336,752.6592 347.7036,733.5192 366.5536,718.1592 " fill="none" id="P_ExperimentA_http_host_30004-to-Production2" style="stroke:#A80036;stroke-width:1.0;"/><polygon fill="#A80036" points="370.8136,714.7392,361.2859,717.2338,366.9079,717.861,366.2807,723.4829,370.8136,714.7392" style="stroke:#A80036;stroke-width:1.0;"/><!--MD5=[1d8caa9a06d52ffe82472ae510834bc1]
link P_ExperimentA_http_host_30004 to Production3--><path d="M170.9236,861.4592 C198.9136,869.2592 293.1736,895.5292 358.5936,913.7592 " fill="none" id="P_ExperimentA_http_host_30004-to-Production3" style="stroke:#A80036;stroke-width:1.0;"/><polygon fill="#A80036" points="363.6536,915.1592,356.0593,908.8882,358.8375,913.8158,353.9099,916.5941,363.6536,915.1592" style="stroke:#A80036;stroke-width:1.0;"/><!--MD5=[f9b72711bf01335bf40bcd9cc13d2264]
link P_ExperimentB_http_host_30005 to Production1--><path d="M171.0936,673.4192 C196.4236,673.5892 273.1036,670.2892 307.7936,626.1992 C322.2636,607.8092 305.3036,542.1192 315.7936,521.1992 C326.7836,499.2992 345.2336,480.2892 363.8736,465.1392 " fill="none" id="P_ExperimentB_http_host_30005-to-Production1" style="stroke:#A80036;stroke-width:1.0;"/><polygon fill="#A80036" points="368.0936,461.7792,358.5604,464.2525,364.181,464.8922,363.5412,470.5128,368.0936,461.7792" style="stroke:#A80036;stroke-width:1.0;"/><!--MD5=[36c914c92d611ecbb1012b88daf8fda8]
link P_ExperimentB_http_host_30005 to Production2--><path d="M170.9236,673.3892 C198.9136,674.0292 293.1736,676.1892 358.5936,677.6792 " fill="none" id="P_ExperimentB_http_host_30005-to-Production2" style="stroke:#A80036;stroke-width:1.0;"/><polygon fill="#A80036" points="363.6536,677.7992,354.7477,673.594,358.655,677.6846,354.5643,681.5919,363.6536,677.7992" style="stroke:#A80036;stroke-width:1.0;"/><!--MD5=[f5c5314735aeaf69d89955151bc2a357]
link P_ExperimentB_http_host_30005 to Production3--><path d="M171.1436,672.8792 C196.6036,672.4092 273.6036,674.8592 307.7936,719.1992 C329.5336,747.3892 296.1636,849.4992 315.7936,879.1992 C326.0336,894.6792 342.1536,905.7892 358.8936,913.6992 " fill="none" id="P_ExperimentB_http_host_30005-to-Production3" style="stroke:#A80036;stroke-width:1.0;"/><polygon fill="#A80036" points="363.6236,915.8392,357.0856,908.4735,359.0718,913.7702,353.7751,915.7565,363.6236,915.8392" style="stroke:#A80036;stroke-width:1.0;"/><!--MD5=[d3625bd19a3f71dd520b66455286d166]
link P_ExperimentC_http_host_30006 to Production1--><path d="M170.8136,766.4692 C195.9736,766.8192 273.7336,764.1092 307.7936,719.1992 C321.1036,701.6592 306.2736,541.0492 315.7936,521.1992 C326.3436,499.2092 344.5736,480.2292 363.1536,465.1392 " fill="none" id="P_ExperimentC_http_host_30006-to-Production1" style="stroke:#A80036;stroke-width:1.0;"/><polygon fill="#A80036" points="367.3736,461.7792,357.8349,464.2311,363.454,464.8835,362.8017,470.5026,367.3736,461.7792" style="stroke:#A80036;stroke-width:1.0;"/><!--MD5=[82e2badd39badd27e409b66f1cb97b1d]
link P_ExperimentC_http_host_30006 to Production2--><path d="M170.9836,763.5992 C193.0936,756.5492 255.8236,736.5092 307.7936,719.1992 C324.2236,713.7292 341.9136,707.7392 358.4336,702.0892 " fill="none" id="P_ExperimentC_http_host_30006-to-Production2" style="stroke:#A80036;stroke-width:1.0;"/><polygon fill="#A80036" points="363.5236,700.3492,353.7148,699.4624,358.7903,701.9603,356.2925,707.0358,363.5236,700.3492" style="stroke:#A80036;stroke-width:1.0;"/><!--MD5=[8bb80b7fc3663b761fbc638705d52bc8]
link P_ExperimentC_http_host_30006 to Production3--><path d="M171.0036,765.9892 C196.0836,765.8192 272.1036,769.0592 307.7936,812.1992 C326.9136,835.3092 298.4036,854.7692 315.7936,879.1992 C326.4436,894.1692 342.5036,905.0892 359.0436,912.9792 " fill="none" id="P_ExperimentC_http_host_30006-to-Production3" style="stroke:#A80036;stroke-width:1.0;"/><polygon fill="#A80036" points="363.7236,915.1292,357.2135,907.7388,359.1797,913.043,353.8755,915.0092,363.7236,915.1292" style="stroke:#A80036;stroke-width:1.0;"/><!--MD5=[b42156bc035747f60f9f0358380f168d]
@startuml
title Overview of the Frinex build server when configured to deploy into a Docker Swarm.
left to right direction
package "DatabaseHost" {
  database "StagingPostgres" {
    card S_Postgres[
      S_ExperimentA_DB
      - - - -
      S_ExperimentB_DB
      - - - -
      S_ExperimentC_DB
    ]
  }
  database "ProductionPostgres" {
    card P_Postgres [
      P_ExperimentA_DB
      - - - -
      P_ExperimentB_DB
      - - - -
      P_ExperimentC_DB
    ]
  }
}

package "DockerSwarm" {

  package "SwarmManager1" {
    GIT - - [BuildProcess]
    [BuildProcess] - - BuildListing
    [BuildProcess] -> [DatabaseManager]
    [DatabaseManager] ==> DatabaseHost
    [Registry]
    card Staging1 [
      S_ExperimentA
      - - - -
      S_ExperimentB
      - - - -
      S_ExperimentC
    ]
    Staging1 - -> S_Postgres
    card Production1 [
      P_ExperimentA
      - - - -
      P_ExperimentB
      - - - -
      P_ExperimentC
    ]
    Production1 - -> P_Postgres
  }

  package "SwarmWorker2" {
    card Staging2 [
      S_ExperimentA
      - - - -
      S_ExperimentB
      - - - -
      S_ExperimentC
    ]
    Staging2 - -> S_Postgres
    card Production2 [
      P_ExperimentA
      - - - -
      P_ExperimentB
      - - - -
      P_ExperimentC
    ]
    Production2 - -> P_Postgres
  }

  package "SwarmWorker3" {
    card Staging3 [
      S_ExperimentA
      - - - -
      S_ExperimentB
      - - - -
      S_ExperimentC
    ]
    Staging3 - -> S_Postgres
    card Production3 [
      P_ExperimentA
      - - - -
      P_ExperimentB
      - - - -
      P_ExperimentC
    ]
    Production3 - -> P_Postgres
  }
}

XML - -> GIT
JSON - -> GIT

BuildProcess -ri-> ElectronApps
BuildProcess -ri-> MobileApps

BuildProcess - -> Registry

cloud WebAccess {
S_ExperimentA_http_host_30001 - -> Staging1
S_ExperimentA_http_host_30001 - -> Staging2
S_ExperimentA_http_host_30001 - -> Staging3
S_ExperimentB_http_host_30002 - -> Staging1
S_ExperimentB_http_host_30002 - -> Staging2
S_ExperimentB_http_host_30002 - -> Staging3
S_ExperimentC_http_host_30003 - -> Staging1
S_ExperimentC_http_host_30003 - -> Staging2
S_ExperimentC_http_host_30003 - -> Staging3

P_ExperimentA_http_host_30004 - -> Production1
P_ExperimentA_http_host_30004 - -> Production2
P_ExperimentA_http_host_30004 - -> Production3
P_ExperimentB_http_host_30005 - -> Production1
P_ExperimentB_http_host_30005 - -> Production2
P_ExperimentB_http_host_30005 - -> Production3
P_ExperimentC_http_host_30006 - -> Production1
P_ExperimentC_http_host_30006 - -> Production2
P_ExperimentC_http_host_30006 - -> Production3
}

@enduml

PlantUML version 1.2021.00(Sun Jan 10 11:25:05 CET 2021)
(MIT source distribution)
Java Runtime: OpenJDK Runtime Environment
JVM: OpenJDK 64-Bit Server VM
Default Encoding: UTF-8
Language: en
Country: NL
--></g></svg>