<?xml version="1.0" encoding="UTF-8" standalone="no"?><svg xmlns="http://www.w3.org/2000/svg" xmlns:xlink="http://www.w3.org/1999/xlink" contentScriptType="application/ecmascript" contentStyleType="text/css" height="1437px" preserveAspectRatio="none" style="width:800px;height:1437px;background:#FFFFFF;" version="1.1" viewBox="0 0 800 1437" width="800px" zoomAndPan="magnify"><defs><filter height="300%" id="f1x6spjbaiuf0y" width="300%" x="-1" y="-1"><feGaussianBlur result="blurOut" stdDeviation="2.0"/><feColorMatrix in="blurOut" result="blurOut2" type="matrix" values="0 0 0 0 0 0 0 0 0 0 0 0 0 0 0 0 0 0 .4 0"/><feOffset dx="4.0" dy="4.0" in="blurOut2" result="blurOut3"/><feBlend in="SourceGraphic" in2="blurOut3" mode="normal"/></filter></defs><g><text fill="#000000" font-family="sans-serif" font-size="18" lengthAdjust="spacing" textLength="791" x="2" y="16.708">Overview of the Frinex build server when configured to deploy into a Docker Swarm.</text><!--MD5=[ba64deda70bd7e191c4b5aec232dcaa8]
cluster DatabaseHost--><polygon fill="#FFFFFF" filter="url(#f1x6spjbaiuf0y)" points="531.5,1039.9531,652.5,1039.9531,659.5,1062.25,772.5,1062.25,772.5,1430.9531,531.5,1430.9531,531.5,1039.9531" style="stroke:#000000;stroke-width:1.5;"/><line style="stroke:#000000;stroke-width:1.5;" x1="531.5" x2="659.5" y1="1062.25" y2="1062.25"/><text fill="#000000" font-family="sans-serif" font-size="14" font-weight="bold" lengthAdjust="spacing" textLength="115" x="535.5" y="1054.9482">DatabaseHost</text><!--MD5=[064be63362e379d4513200c95fa5dcab]
cluster StagingPostgres--><path d="M576.5,1108.9531 C576.5,1098.9531 652,1098.9531 652,1098.9531 C652,1098.9531 727.5,1098.9531 727.5,1108.9531 L727.5,1226.9531 C727.5,1236.9531 652,1236.9531 652,1236.9531 C652,1236.9531 576.5,1236.9531 576.5,1226.9531 L576.5,1108.9531 " fill="#FFFFFF" filter="url(#f1x6spjbaiuf0y)" style="stroke:#000000;stroke-width:1.5;"/><path d="M576.5,1108.9531 C576.5,1118.9531 652,1118.9531 652,1118.9531 C652,1118.9531 727.5,1118.9531 727.5,1108.9531 " fill="none" style="stroke:#000000;stroke-width:1.5;"/><text fill="#000000" font-family="sans-serif" font-size="14" font-weight="bold" lengthAdjust="spacing" textLength="135" x="584.5" y="1133.9482">StagingPostgres</text><!--MD5=[a99d91227cccac036eca640259221bb0]
cluster ProductionPostgres--><path d="M563.5,1270.9531 C563.5,1260.9531 652,1260.9531 652,1260.9531 C652,1260.9531 740.5,1260.9531 740.5,1270.9531 L740.5,1388.9531 C740.5,1398.9531 652,1398.9531 652,1398.9531 C652,1398.9531 563.5,1398.9531 563.5,1388.9531 L563.5,1270.9531 " fill="#FFFFFF" filter="url(#f1x6spjbaiuf0y)" style="stroke:#000000;stroke-width:1.5;"/><path d="M563.5,1270.9531 C563.5,1280.9531 652,1280.9531 652,1280.9531 C652,1280.9531 740.5,1280.9531 740.5,1270.9531 " fill="none" style="stroke:#000000;stroke-width:1.5;"/><text fill="#000000" font-family="sans-serif" font-size="14" font-weight="bold" lengthAdjust="spacing" textLength="161" x="571.5" y="1295.9482">ProductionPostgres</text><!--MD5=[98b5b827ea6215f24ce66beb5909e67d]
cluster DockerSwarm--><polygon fill="#FFFFFF" filter="url(#f1x6spjbaiuf0y)" points="88.5,112.9531,204.5,112.9531,211.5,135.25,741.5,135.25,741.5,1007.9531,88.5,1007.9531,88.5,112.9531" style="stroke:#000000;stroke-width:1.5;"/><line style="stroke:#000000;stroke-width:1.5;" x1="88.5" x2="211.5" y1="135.25" y2="135.25"/><text fill="#000000" font-family="sans-serif" font-size="14" font-weight="bold" lengthAdjust="spacing" textLength="110" x="92.5" y="127.9482">DockerSwarm</text><!--MD5=[5e20f5f91125398246b1e48522ba6bea]
cluster SwarmManager1--><polygon fill="#FFFFFF" filter="url(#f1x6spjbaiuf0y)" points="112.5,155.9531,253.5,155.9531,260.5,178.25,717.5,178.25,717.5,477.9531,112.5,477.9531,112.5,155.9531" style="stroke:#000000;stroke-width:1.5;"/><line style="stroke:#000000;stroke-width:1.5;" x1="112.5" x2="260.5" y1="178.25" y2="178.25"/><text fill="#000000" font-family="sans-serif" font-size="14" font-weight="bold" lengthAdjust="spacing" textLength="135" x="116.5" y="170.9482">SwarmManager1</text><!--MD5=[6c6233d4cbe48ca8c6073cfbba7900ce]
cluster SwarmWorker2--><polygon fill="#FFFFFF" filter="url(#f1x6spjbaiuf0y)" points="112.5,501.9531,240.5,501.9531,247.5,524.25,275.5,524.25,275.5,730.9531,112.5,730.9531,112.5,501.9531" style="stroke:#000000;stroke-width:1.5;"/><line style="stroke:#000000;stroke-width:1.5;" x1="112.5" x2="247.5" y1="524.25" y2="524.25"/><text fill="#000000" font-family="sans-serif" font-size="14" font-weight="bold" lengthAdjust="spacing" textLength="122" x="116.5" y="516.9482">SwarmWorker2</text><!--MD5=[835c88969957503822a51d3074b9b302]
cluster SwarmWorker3--><polygon fill="#FFFFFF" filter="url(#f1x6spjbaiuf0y)" points="112.5,754.9531,240.5,754.9531,247.5,777.25,275.5,777.25,275.5,983.9531,112.5,983.9531,112.5,754.9531" style="stroke:#000000;stroke-width:1.5;"/><line style="stroke:#000000;stroke-width:1.5;" x1="112.5" x2="247.5" y1="777.25" y2="777.25"/><text fill="#000000" font-family="sans-serif" font-size="14" font-weight="bold" lengthAdjust="spacing" textLength="122" x="116.5" y="769.9482">SwarmWorker3</text><!--MD5=[8ceecb7d5da98bfc6e6e5ec879446ac9]
entity S_Postgres--><rect fill="#FEFECE" filter="url(#f1x6spjbaiuf0y)" height="70.8906" style="stroke:#000000;stroke-width:1.5;" width="80" x="611.5" y="1149.4531"/><text fill="#000000" font-family="sans-serif" font-size="14" lengthAdjust="spacing" textLength="60" x="621.5" y="1165.4482">S_DataA</text><line style="stroke:#000000;stroke-width:1.0;" x1="612.5" x2="690.5" y1="1168.75" y2="1168.75"/><text fill="#000000" font-family="sans-serif" font-size="14" lengthAdjust="spacing" textLength="60" x="621.5" y="1185.7451">S_DataB</text><line style="stroke:#000000;stroke-width:1.0;" x1="612.5" x2="690.5" y1="1193.0469" y2="1193.0469"/><text fill="#000000" font-family="sans-serif" font-size="14" lengthAdjust="spacing" textLength="60" x="621.5" y="1210.042">S_DataC</text><!--MD5=[98469fa12ae22473b803c6e5fc8ad052]
entity P_Postgres--><rect fill="#FEFECE" filter="url(#f1x6spjbaiuf0y)" height="70.8906" style="stroke:#000000;stroke-width:1.5;" width="80" x="611.5" y="1311.4531"/><text fill="#000000" font-family="sans-serif" font-size="14" lengthAdjust="spacing" textLength="60" x="621.5" y="1327.4482">P_DataA</text><line style="stroke:#000000;stroke-width:1.0;" x1="612.5" x2="690.5" y1="1330.75" y2="1330.75"/><text fill="#000000" font-family="sans-serif" font-size="14" lengthAdjust="spacing" textLength="60" x="621.5" y="1347.7451">P_DataB</text><line style="stroke:#000000;stroke-width:1.0;" x1="612.5" x2="690.5" y1="1355.0469" y2="1355.0469"/><text fill="#000000" font-family="sans-serif" font-size="14" lengthAdjust="spacing" textLength="60" x="621.5" y="1372.042">P_DataC</text><!--MD5=[8508ee80f51d2ab8da2f58bb9291871b]
entity GIT--><ellipse cx="194" cy="219.9531" fill="#FEFECE" filter="url(#f1x6spjbaiuf0y)" rx="8" ry="8" style="stroke:#A80036;stroke-width:1.5;"/><text fill="#000000" font-family="sans-serif" font-size="14" lengthAdjust="spacing" textLength="24" x="182" y="249.9482">GIT</text><!--MD5=[c212259dc7d3920de60008eab0b8d272]
entity BuildProcess--><rect fill="#FEFECE" filter="url(#f1x6spjbaiuf0y)" height="46.2969" style="stroke:#A80036;stroke-width:1.5;" width="130" x="339" y="196.9531"/><rect fill="#FEFECE" height="10" style="stroke:#A80036;stroke-width:1.5;" width="15" x="449" y="201.9531"/><rect fill="#FEFECE" height="2" style="stroke:#A80036;stroke-width:1.5;" width="4" x="447" y="203.9531"/><rect fill="#FEFECE" height="2" style="stroke:#A80036;stroke-width:1.5;" width="4" x="447" y="207.9531"/><text fill="#000000" font-family="sans-serif" font-size="14" lengthAdjust="spacing" textLength="90" x="354" y="229.9482">BuildProcess</text><!--MD5=[67cf98da98c31b99946e7c07ba74794c]
entity BuildListing--><ellipse cx="651.5" cy="219.9531" fill="#FEFECE" filter="url(#f1x6spjbaiuf0y)" rx="8" ry="8" style="stroke:#A80036;stroke-width:1.5;"/><text fill="#000000" font-family="sans-serif" font-size="14" lengthAdjust="spacing" textLength="83" x="610" y="249.9482">BuildListing</text><!--MD5=[1c77f4a0ea9a9ba95c794d537e1302d6]
entity DatabaseManager--><rect fill="#FEFECE" filter="url(#f1x6spjbaiuf0y)" height="46.2969" style="stroke:#A80036;stroke-width:1.5;" width="169" x="319.5" y="346.9531"/><rect fill="#FEFECE" height="10" style="stroke:#A80036;stroke-width:1.5;" width="15" x="468.5" y="351.9531"/><rect fill="#FEFECE" height="2" style="stroke:#A80036;stroke-width:1.5;" width="4" x="466.5" y="353.9531"/><rect fill="#FEFECE" height="2" style="stroke:#A80036;stroke-width:1.5;" width="4" x="466.5" y="357.9531"/><text fill="#000000" font-family="sans-serif" font-size="14" lengthAdjust="spacing" textLength="129" x="334.5" y="379.9482">DatabaseManager</text><!--MD5=[4deb7753515de286d568fa33f0a2fe6f]
entity Registry--><rect fill="#FEFECE" filter="url(#f1x6spjbaiuf0y)" height="46.2969" style="stroke:#A80036;stroke-width:1.5;" width="100" x="601.5" y="283.9531"/><rect fill="#FEFECE" height="10" style="stroke:#A80036;stroke-width:1.5;" width="15" x="681.5" y="288.9531"/><rect fill="#FEFECE" height="2" style="stroke:#A80036;stroke-width:1.5;" width="4" x="679.5" y="290.9531"/><rect fill="#FEFECE" height="2" style="stroke:#A80036;stroke-width:1.5;" width="4" x="679.5" y="294.9531"/><text fill="#000000" font-family="sans-serif" font-size="14" lengthAdjust="spacing" textLength="60" x="616.5" y="316.9482">Registry</text><!--MD5=[1193c9a8d6f0375198f9af9c77ba891e]
entity Staging1--><rect fill="#FEFECE" filter="url(#f1x6spjbaiuf0y)" height="70.8906" style="stroke:#000000;stroke-width:1.5;" width="131" x="128.5" y="284.4531"/><text fill="#000000" font-family="sans-serif" font-size="14" lengthAdjust="spacing" textLength="111" x="138.5" y="300.4482">S_ExperimentA</text><line style="stroke:#000000;stroke-width:1.0;" x1="129.5" x2="258.5" y1="303.75" y2="303.75"/><text fill="#000000" font-family="sans-serif" font-size="14" lengthAdjust="spacing" textLength="111" x="138.5" y="320.7451">S_ExperimentB</text><line style="stroke:#000000;stroke-width:1.0;" x1="129.5" x2="258.5" y1="328.0469" y2="328.0469"/><text fill="#000000" font-family="sans-serif" font-size="14" lengthAdjust="spacing" textLength="111" x="138.5" y="345.042">S_ExperimentC</text><!--MD5=[a3ac6e966b653793622b6b1c4d449e70]
entity Production1--><rect fill="#FEFECE" filter="url(#f1x6spjbaiuf0y)" height="70.8906" style="stroke:#000000;stroke-width:1.5;" width="131" x="128.5" y="390.4531"/><text fill="#000000" font-family="sans-serif" font-size="14" lengthAdjust="spacing" textLength="111" x="138.5" y="406.4482">P_ExperimentA</text><line style="stroke:#000000;stroke-width:1.0;" x1="129.5" x2="258.5" y1="409.75" y2="409.75"/><text fill="#000000" font-family="sans-serif" font-size="14" lengthAdjust="spacing" textLength="111" x="138.5" y="426.7451">P_ExperimentB</text><line style="stroke:#000000;stroke-width:1.0;" x1="129.5" x2="258.5" y1="434.0469" y2="434.0469"/><text fill="#000000" font-family="sans-serif" font-size="14" lengthAdjust="spacing" textLength="111" x="138.5" y="451.042">P_ExperimentC</text><!--MD5=[d2e8e996c466aff469812eeb677edd62]
entity Staging2--><rect fill="#FEFECE" filter="url(#f1x6spjbaiuf0y)" height="70.8906" style="stroke:#000000;stroke-width:1.5;" width="131" x="128.5" y="537.4531"/><text fill="#000000" font-family="sans-serif" font-size="14" lengthAdjust="spacing" textLength="111" x="138.5" y="553.4482">S_ExperimentA</text><line style="stroke:#000000;stroke-width:1.0;" x1="129.5" x2="258.5" y1="556.75" y2="556.75"/><text fill="#000000" font-family="sans-serif" font-size="14" lengthAdjust="spacing" textLength="111" x="138.5" y="573.7451">S_ExperimentB</text><line style="stroke:#000000;stroke-width:1.0;" x1="129.5" x2="258.5" y1="581.0469" y2="581.0469"/><text fill="#000000" font-family="sans-serif" font-size="14" lengthAdjust="spacing" textLength="111" x="138.5" y="598.042">S_ExperimentC</text><!--MD5=[4b36d65e59fa3602a200de0f92fc92d3]
entity Production2--><rect fill="#FEFECE" filter="url(#f1x6spjbaiuf0y)" height="70.8906" style="stroke:#000000;stroke-width:1.5;" width="131" x="128.5" y="643.4531"/><text fill="#000000" font-family="sans-serif" font-size="14" lengthAdjust="spacing" textLength="111" x="138.5" y="659.4482">P_ExperimentA</text><line style="stroke:#000000;stroke-width:1.0;" x1="129.5" x2="258.5" y1="662.75" y2="662.75"/><text fill="#000000" font-family="sans-serif" font-size="14" lengthAdjust="spacing" textLength="111" x="138.5" y="679.7451">P_ExperimentB</text><line style="stroke:#000000;stroke-width:1.0;" x1="129.5" x2="258.5" y1="687.0469" y2="687.0469"/><text fill="#000000" font-family="sans-serif" font-size="14" lengthAdjust="spacing" textLength="111" x="138.5" y="704.042">P_ExperimentC</text><!--MD5=[63185a0ef5f89dfa96c1942dee6a0682]
entity Staging3--><rect fill="#FEFECE" filter="url(#f1x6spjbaiuf0y)" height="70.8906" style="stroke:#000000;stroke-width:1.5;" width="131" x="128.5" y="790.4531"/><text fill="#000000" font-family="sans-serif" font-size="14" lengthAdjust="spacing" textLength="111" x="138.5" y="806.4482">S_ExperimentA</text><line style="stroke:#000000;stroke-width:1.0;" x1="129.5" x2="258.5" y1="809.75" y2="809.75"/><text fill="#000000" font-family="sans-serif" font-size="14" lengthAdjust="spacing" textLength="111" x="138.5" y="826.7451">S_ExperimentB</text><line style="stroke:#000000;stroke-width:1.0;" x1="129.5" x2="258.5" y1="834.0469" y2="834.0469"/><text fill="#000000" font-family="sans-serif" font-size="14" lengthAdjust="spacing" textLength="111" x="138.5" y="851.042">S_ExperimentC</text><!--MD5=[990c4a3486d221c049f8fb4a2d2d02a0]
entity Production3--><rect fill="#FEFECE" filter="url(#f1x6spjbaiuf0y)" height="70.8906" style="stroke:#000000;stroke-width:1.5;" width="131" x="128.5" y="896.4531"/><text fill="#000000" font-family="sans-serif" font-size="14" lengthAdjust="spacing" textLength="111" x="138.5" y="912.4482">P_ExperimentA</text><line style="stroke:#000000;stroke-width:1.0;" x1="129.5" x2="258.5" y1="915.75" y2="915.75"/><text fill="#000000" font-family="sans-serif" font-size="14" lengthAdjust="spacing" textLength="111" x="138.5" y="932.7451">P_ExperimentB</text><line style="stroke:#000000;stroke-width:1.0;" x1="129.5" x2="258.5" y1="940.0469" y2="940.0469"/><text fill="#000000" font-family="sans-serif" font-size="14" lengthAdjust="spacing" textLength="111" x="138.5" y="957.042">P_ExperimentC</text><!--MD5=[8542d3c4667b51f1062a6130d5d31d3f]
entity XML--><ellipse cx="41.5" cy="172.9531" fill="#FEFECE" filter="url(#f1x6spjbaiuf0y)" rx="8" ry="8" style="stroke:#A80036;stroke-width:1.5;"/><text fill="#000000" font-family="sans-serif" font-size="14" lengthAdjust="spacing" textLength="30" x="26.5" y="202.9482">XML</text><!--MD5=[c470d76c68afda2f5e9525cd4f85a320]
entity JSON--><ellipse cx="41.5" cy="265.9531" fill="#FEFECE" filter="url(#f1x6spjbaiuf0y)" rx="8" ry="8" style="stroke:#A80036;stroke-width:1.5;"/><text fill="#000000" font-family="sans-serif" font-size="14" lengthAdjust="spacing" textLength="34" x="24.5" y="295.9482">JSON</text><!--MD5=[49f01e80b9b7ed5ac4c62e42b9014098]
entity ElectronApps--><ellipse cx="404" cy="87.9531" fill="#FEFECE" filter="url(#f1x6spjbaiuf0y)" rx="8" ry="8" style="stroke:#A80036;stroke-width:1.5;"/><text fill="#000000" font-family="sans-serif" font-size="14" lengthAdjust="spacing" textLength="98" x="355" y="117.9482">ElectronApps</text><!--MD5=[907df72fbbecbad018b0540ed2bffab7]
entity MobileApps--><ellipse cx="404" cy="34.9531" fill="#FEFECE" filter="url(#f1x6spjbaiuf0y)" rx="8" ry="8" style="stroke:#A80036;stroke-width:1.5;"/><text fill="#000000" font-family="sans-serif" font-size="14" lengthAdjust="spacing" textLength="85" x="361.5" y="64.9482">MobileApps</text><!--MD5=[559999df657540dbf8f2170dae676317]
link GIT to BuildProcess--><path d="M203.154,219.9531 C225.461,219.9531 289.135,219.9531 338.677,219.9531 " fill="none" id="GIT-BuildProcess" style="stroke:#A80036;stroke-width:1.0;"/><!--MD5=[e09825669451c5bf93a65731050d2015]
link BuildProcess to BuildListing--><path d="M469.182,219.9531 C529.987,219.9531 615.837,219.9531 642.37,219.9531 " fill="none" id="BuildProcess-BuildListing" style="stroke:#A80036;stroke-width:1.0;"/><!--MD5=[181f968f8fb0bd107c4540f24f8027fe]
link BuildProcess to DatabaseManager--><path d="M404,243.2431 C404,276.0131 404,308.7831 404,341.5531 " fill="none" id="BuildProcess-to-DatabaseManager" style="stroke:#A80036;stroke-width:1.0;"/><polygon fill="#A80036" points="404,346.8131,408,337.8131,404,341.8131,400,337.8131,404,346.8131" style="stroke:#A80036;stroke-width:1.0;"/><!--MD5=[bb276dd4f69f5d8a00634799034fcba5]
link DatabaseManager to DatabaseHost--><path d="M445.12,393.0731 C460.757,403.9331 477.524,418.2031 488.5,434.9531 C567.3505,555.2696 607.8363,711.7504 628.6164,838.9028 C639.0064,902.4789 644.4701,958.723 647.3397,999.4485 C648.0571,1009.6298 648.6124,1018.8412 649.042,1026.9549 C649.2568,1031.0117 649.4402,1034.794 649.5967,1038.2859 C649.6163,1038.7224 649.6354,1039.1543 649.6542,1039.5817 " fill="none" id="DatabaseManager-to-DatabaseHost" style="stroke:#A80036;stroke-width:2.0;"/><polygon fill="#A80036" points="649.6542,1039.5817,653.2562,1030.4152,649.4352,1034.5865,645.2639,1030.7655,649.6542,1039.5817" style="stroke:#A80036;stroke-width:2.0;"/><!--MD5=[63eb0d948ea918f7e4e459345eeb14b5]
link Staging1 to S_Postgres--><path d="M259.257,355.5731 C267.657,361.0431 275.956,366.9031 283.5,372.9531 C301.648,387.5131 302.081,395.5331 319.5,410.9531 C389.451,472.8801 444.607,453.4831 488.5,535.9531 C520.375,595.8431 473.535,1092.6451 515.5,1145.9531 C536.755,1172.9531 575.488,1182.0481 606.032,1184.7681 " fill="none" id="Staging1-to-S_Postgres" style="stroke:#A80036;stroke-width:1.0;"/><polygon fill="#A80036" points="611.246,1185.1781,602.5881,1180.4833,606.2615,1184.7852,601.9595,1188.4586,611.246,1185.1781" style="stroke:#A80036;stroke-width:1.0;"/><!--MD5=[951a6c9be172a66cc53ccb0ac1d71fb3]
link Production1 to P_Postgres--><path d="M233.89,461.8441 C250.619,478.6691 269.502,499.6731 283.5,520.9531 C408.067,710.3301 430.045,768.9471 488.5,987.9531 C517.206,1095.5031 462.372,1139.1341 515.5,1236.9531 C536.129,1274.9361 575.822,1304.8021 606.851,1323.7711 " fill="none" id="Production1-to-P_Postgres" style="stroke:#A80036;stroke-width:1.0;"/><polygon fill="#A80036" points="611.363,1326.4901,605.7178,1318.4197,607.0801,1323.9101,601.5897,1325.2724,611.363,1326.4901" style="stroke:#A80036;stroke-width:1.0;"/><!--MD5=[3d4f8b48770b10a181631397f623ec54]
link Staging2 to S_Postgres--><path d="M259.895,608.6651 C268.108,614.0851 276.187,619.9021 283.5,625.9531 C389.005,713.2421 433.865,730.3921 488.5,855.9531 C514.324,915.3011 474.241,1096.0851 515.5,1145.9531 C537.331,1172.3391 575.813,1181.5151 606.121,1184.4201 " fill="none" id="Staging2-to-S_Postgres" style="stroke:#A80036;stroke-width:1.0;"/><polygon fill="#A80036" points="611.294,1184.8641,602.6686,1180.1098,606.3123,1184.437,601.9852,1188.0806,611.294,1184.8641" style="stroke:#A80036;stroke-width:1.0;"/><!--MD5=[0e03b52159eb3c89e9374c8563c82168]
link Production2 to P_Postgres--><path d="M234.062,714.7321 C250.824,731.5361 269.686,752.5531 283.5,773.9531 C305.972,808.7661 301.534,822.6141 319.5,859.9531 C387.369,1001.0061 421.937,1027.2791 488.5,1168.9531 C502.328,1198.3841 496.276,1210.7271 515.5,1236.9531 C540.286,1270.7681 577.835,1300.2271 607.045,1320.1261 " fill="none" id="Production2-to-P_Postgres" style="stroke:#A80036;stroke-width:1.0;"/><polygon fill="#A80036" points="611.292,1322.9921,606.0679,1314.6429,607.147,1320.1959,601.594,1321.275,611.292,1322.9921" style="stroke:#A80036;stroke-width:1.0;"/><!--MD5=[98fa29250d6390155fa1d361871969b2]
link Staging3 to S_Postgres--><path d="M259.503,861.2711 C267.865,866.7921 276.088,872.7411 283.5,878.9531 C403.99,979.9281 383.007,1061.3411 515.5,1145.9531 C542.986,1163.5061 578.578,1173.3611 606.315,1178.7721 " fill="none" id="Staging3-to-S_Postgres" style="stroke:#A80036;stroke-width:1.0;"/><polygon fill="#A80036" points="611.399,1179.7321,603.2969,1174.1325,606.4857,1178.8049,601.8133,1181.9937,611.399,1179.7321" style="stroke:#A80036;stroke-width:1.0;"/><!--MD5=[d2033794474637c911f0647b91857d25]
link Production3 to P_Postgres--><path d="M210.987,967.5191 C231.54,1010.4191 270.494,1082.9881 319.5,1132.9531 C407.237,1222.4061 538.802,1293.3761 606.613,1326.5401 " fill="none" id="Production3-to-P_Postgres" style="stroke:#A80036;stroke-width:1.0;"/><polygon fill="#A80036" points="611.383,1328.8621,605.0417,1321.3263,606.8874,1326.6736,601.5401,1328.5193,611.383,1328.8621" style="stroke:#A80036;stroke-width:1.0;"/><!--MD5=[473a9bd311ff378df3b944c922087996]
link XML to GIT--><path d="M50.5915,175.4831 C75.2942,183.1931 149.883,206.4831 180.09,215.9231 " fill="none" id="XML-to-GIT" style="stroke:#A80036;stroke-width:1.0;"/><polygon fill="#A80036" points="184.868,217.4131,177.4695,210.9122,180.0953,215.9227,175.0848,218.5486,184.868,217.4131" style="stroke:#A80036;stroke-width:1.0;"/><!--MD5=[3d715daef7e68d317b0486f27a994155]
link JSON to GIT--><path d="M50.5915,263.4831 C75.1921,255.9631 149.267,233.3231 179.713,224.0131 " fill="none" id="JSON-to-GIT" style="stroke:#A80036;stroke-width:1.0;"/><polygon fill="#A80036" points="184.868,222.4431,175.0922,221.2461,180.086,223.9034,177.4286,228.8973,184.868,222.4431" style="stroke:#A80036;stroke-width:1.0;"/><!--MD5=[f27179d821286a1570e6a2e46eb28302]
link BuildProcess to ElectronApps--><path d="M404,196.7531 C404,165.2831 404,133.8231 404,102.3531 " fill="none" id="BuildProcess-to-ElectronApps" style="stroke:#A80036;stroke-width:1.0;"/><polygon fill="#A80036" points="404,97.3031,400,106.3031,404,102.3031,408,106.3031,404,97.3031" style="stroke:#A80036;stroke-width:1.0;"/><!--MD5=[1da6a94ac552664254cede36e964ce73]
link BuildProcess to MobileApps--><path d="M367.302,196.7431 C330.525,170.2931 281.962,124.6931 301.5,78.4531 C315.769,44.6831 365.153,37.0731 389.791,35.4031 " fill="none" id="BuildProcess-to-MobileApps" style="stroke:#A80036;stroke-width:1.0;"/><polygon fill="#A80036" points="394.93,35.1131,385.7209,31.6214,389.9378,35.3921,386.1672,39.609,394.93,35.1131" style="stroke:#A80036;stroke-width:1.0;"/><!--MD5=[6eac4f028760ff8ed72dc70de78a3035]
link BuildProcess to Registry--><path d="M455.958,243.0631 C474.518,251.1031 495.784,259.8631 515.5,266.9531 C541.81,276.4131 571.558,285.4031 596.42,292.4531 " fill="none" id="BuildProcess-to-Registry" style="stroke:#A80036;stroke-width:1.0;"/><polygon fill="#A80036" points="601.325,293.8431,593.7479,287.5513,596.5126,292.4865,591.5773,295.2512,601.325,293.8431" style="stroke:#A80036;stroke-width:1.0;"/><!--MD5=[ebc223eae70197cf9f4b147c84411b74]
@startuml
title Overview of the Frinex build server when configured to deploy into a Docker Swarm.
left to right direction
package "DatabaseHost" {
  database "StagingPostgres" {
    card S_Postgres[
      S_DataA
      - - - -
      S_DataB
      - - - -
      S_DataC
    ]
  }
  database "ProductionPostgres" {
    card P_Postgres [
      P_DataA
      - - - -
      P_DataB
      - - - -
      P_DataC
    ]
  }
}

package "DockerSwarm" {

  package "SwarmManager1" {
    GIT - - [BuildProcess]
    [BuildProcess] - - BuildListing
    [BuildProcess] -> [DatabaseManager]
    [DatabaseManager] ==> DatabaseHost
    [Registry]
    card Staging1 [
      S_ExperimentA
      - - - -
      S_ExperimentB
      - - - -
      S_ExperimentC
    ]
    Staging1 - -> S_Postgres
    card Production1 [
      P_ExperimentA
      - - - -
      P_ExperimentB
      - - - -
      P_ExperimentC
    ]
    Production1 - -> P_Postgres
  }

  package "SwarmWorker2" {
    card Staging2 [
      S_ExperimentA
      - - - -
      S_ExperimentB
      - - - -
      S_ExperimentC
    ]
    Staging2 - -> S_Postgres
    card Production2 [
      P_ExperimentA
      - - - -
      P_ExperimentB
      - - - -
      P_ExperimentC
    ]
    Production2 - -> P_Postgres
  }

  package "SwarmWorker3" {
    card Staging3 [
      S_ExperimentA
      - - - -
      S_ExperimentB
      - - - -
      S_ExperimentC
    ]
    Staging3 - -> S_Postgres
    card Production3 [
      P_ExperimentA
      - - - -
      P_ExperimentB
      - - - -
      P_ExperimentC
    ]
    Production3 - -> P_Postgres
  }
}

XML - -> GIT
JSON - -> GIT

BuildProcess -ri-> ElectronApps
BuildProcess -ri-> MobileApps

BuildProcess - -> Registry
@enduml

PlantUML version 1.2021.8beta3(Unknown compile time)
(GPL source distribution)
Java Runtime: Java(TM) SE Runtime Environment
JVM: Java HotSpot(TM) 64-Bit Server VM
Default Encoding: UTF-8
Language: en
Country: US
--></g></svg>