<?xml version="1.0" encoding="UTF-8" standalone="no"?><svg xmlns="http://www.w3.org/2000/svg" xmlns:xlink="http://www.w3.org/1999/xlink" contentScriptType="application/ecmascript" contentStyleType="text/css" height="575px" preserveAspectRatio="none" style="width:1825px;height:575px;background:#FFFFFF;" version="1.1" viewBox="0 0 1825 575" width="1825px" zoomAndPan="magnify"><defs><filter height="300%" id="f16t4vysoa2ytg" width="300%" x="-1" y="-1"><feGaussianBlur result="blurOut" stdDeviation="2.0"/><feColorMatrix in="blurOut" result="blurOut2" type="matrix" values="0 0 0 0 0 0 0 0 0 0 0 0 0 0 0 0 0 0 .4 0"/><feOffset dx="4.0" dy="4.0" in="blurOut2" result="blurOut3"/><feBlend in="SourceGraphic" in2="blurOut3" mode="normal"/></filter></defs><g><!--MD5=[6ef21aca39c11011116536f0bdb76d1e]
cluster BuildServer--><polygon fill="#FFFFFF" filter="url(#f16t4vysoa2ytg)" points="231,67,329,67,336,89.2969,534,89.2969,534,180,231,180,231,67" style="stroke:#000000;stroke-width:1.5;"/><line style="stroke:#000000;stroke-width:1.5;" x1="231" x2="336" y1="89.2969" y2="89.2969"/><text fill="#000000" font-family="sans-serif" font-size="14" font-weight="bold" lengthAdjust="spacing" textLength="92" x="235" y="81.9951">BuildServer</text><!--MD5=[21d3bc2ca15d029df2435d856c261771]
cluster Staging--><polygon fill="#FFFFFF" filter="url(#f16t4vysoa2ytg)" points="274,220,343,220,350,242.2969,1021,242.2969,1021,568,274,568,274,220" style="stroke:#000000;stroke-width:1.5;"/><line style="stroke:#000000;stroke-width:1.5;" x1="274" x2="350" y1="242.2969" y2="242.2969"/><text fill="#000000" font-family="sans-serif" font-size="14" font-weight="bold" lengthAdjust="spacing" textLength="63" x="278" y="234.9951">Staging</text><!--MD5=[a5b2bbcb43362595c29473893becfcce]
cluster S_Postgres--><path d="M457,410 C457,400 675.5,400 675.5,400 C675.5,400 894,400 894,410 L894,518 C894,528 675.5,528 675.5,528 C675.5,528 457,528 457,518 L457,410 " fill="#FFFFFF" filter="url(#f16t4vysoa2ytg)" style="stroke:#000000;stroke-width:1.5;"/><path d="M457,410 C457,420 675.5,420 675.5,420 C675.5,420 894,420 894,410 " fill="none" style="stroke:#000000;stroke-width:1.5;"/><text fill="#000000" font-family="sans-serif" font-size="14" font-weight="bold" lengthAdjust="spacing" textLength="89" x="631" y="434.9951">S_Postgres</text><!--MD5=[5ee479c350b404bc2fbbd00b78662128]
cluster S_Tomcat--><polygon fill="#FFFFFF" filter="url(#f16t4vysoa2ytg)" points="433,271,519,271,526,293.2969,989,293.2969,989,368,433,368,433,271" style="stroke:#000000;stroke-width:1.5;"/><line style="stroke:#000000;stroke-width:1.5;" x1="433" x2="526" y1="293.2969" y2="293.2969"/><text fill="#000000" font-family="sans-serif" font-size="14" font-weight="bold" lengthAdjust="spacing" textLength="80" x="437" y="285.9951">S_Tomcat</text><!--MD5=[70c5155dc2d6bfca20cea34af46dc1c3]
cluster Production--><polygon fill="#FFFFFF" filter="url(#f16t4vysoa2ytg)" points="1061,220,1156,220,1163,242.2969,1808,242.2969,1808,568,1061,568,1061,220" style="stroke:#000000;stroke-width:1.5;"/><line style="stroke:#000000;stroke-width:1.5;" x1="1061" x2="1163" y1="242.2969" y2="242.2969"/><text fill="#000000" font-family="sans-serif" font-size="14" font-weight="bold" lengthAdjust="spacing" textLength="89" x="1065" y="234.9951">Production</text><!--MD5=[a498d3f8770df7c2628f8489445be243]
cluster P_Postgres--><path d="M1244,410 C1244,400 1462.5,400 1462.5,400 C1462.5,400 1681,400 1681,410 L1681,518 C1681,528 1462.5,528 1462.5,528 C1462.5,528 1244,528 1244,518 L1244,410 " fill="#FFFFFF" filter="url(#f16t4vysoa2ytg)" style="stroke:#000000;stroke-width:1.5;"/><path d="M1244,410 C1244,420 1462.5,420 1462.5,420 C1462.5,420 1681,420 1681,410 " fill="none" style="stroke:#000000;stroke-width:1.5;"/><text fill="#000000" font-family="sans-serif" font-size="14" font-weight="bold" lengthAdjust="spacing" textLength="89" x="1418" y="434.9951">P_Postgres</text><!--MD5=[bc722b1a1f6cb95a0f3f5c3c4b34d3d8]
cluster P_Tomcat--><polygon fill="#FFFFFF" filter="url(#f16t4vysoa2ytg)" points="1220,271,1306,271,1313,293.2969,1776,293.2969,1776,368,1220,368,1220,271" style="stroke:#000000;stroke-width:1.5;"/><line style="stroke:#000000;stroke-width:1.5;" x1="1220" x2="1313" y1="293.2969" y2="293.2969"/><text fill="#000000" font-family="sans-serif" font-size="14" font-weight="bold" lengthAdjust="spacing" textLength="80" x="1224" y="285.9951">P_Tomcat</text><!--MD5=[8508ee80f51d2ab8da2f58bb9291871b]
entity GIT--><ellipse cx="283" cy="133" fill="#FEFECE" filter="url(#f16t4vysoa2ytg)" rx="8" ry="8" style="stroke:#A80036;stroke-width:1.5;"/><text fill="#000000" font-family="sans-serif" font-size="14" lengthAdjust="spacing" textLength="24" x="271" y="162.9951">GIT</text><!--MD5=[c212259dc7d3920de60008eab0b8d272]
entity BuildProcess--><rect fill="#FEFECE" filter="url(#f16t4vysoa2ytg)" height="46.2969" style="stroke:#A80036;stroke-width:1.5;" width="130" x="327" y="110"/><rect fill="#FEFECE" height="10" style="stroke:#A80036;stroke-width:1.5;" width="15" x="437" y="115"/><rect fill="#FEFECE" height="2" style="stroke:#A80036;stroke-width:1.5;" width="4" x="435" y="117"/><rect fill="#FEFECE" height="2" style="stroke:#A80036;stroke-width:1.5;" width="4" x="435" y="121"/><text fill="#000000" font-family="sans-serif" font-size="14" lengthAdjust="spacing" textLength="90" x="342" y="142.9951">BuildProcess</text><!--MD5=[67cf98da98c31b99946e7c07ba74794c]
entity BuildListing--><ellipse cx="501" cy="133" fill="#FEFECE" filter="url(#f16t4vysoa2ytg)" rx="8" ry="8" style="stroke:#A80036;stroke-width:1.5;"/><text fill="#000000" font-family="sans-serif" font-size="14" lengthAdjust="spacing" textLength="83" x="459.5" y="162.9951">BuildListing</text><!--MD5=[fc6f67bee88772bea413f15dee7f1380]
entity S_CRON--><rect fill="#FEFECE" filter="url(#f16t4vysoa2ytg)" height="46.2969" style="stroke:#A80036;stroke-width:1.5;" width="97" x="317.5" y="306"/><rect fill="#FEFECE" height="10" style="stroke:#A80036;stroke-width:1.5;" width="15" x="394.5" y="311"/><rect fill="#FEFECE" height="2" style="stroke:#A80036;stroke-width:1.5;" width="4" x="392.5" y="313"/><rect fill="#FEFECE" height="2" style="stroke:#A80036;stroke-width:1.5;" width="4" x="392.5" y="317"/><text fill="#000000" font-family="sans-serif" font-size="14" lengthAdjust="spacing" textLength="57" x="332.5" y="338.9951">S_CRON</text><!--MD5=[1de265db52d8aabefbf84b67ca7b8570]
entity S_DataA--><rect fill="#FEFECE" filter="url(#f16t4vysoa2ytg)" height="46.2969" style="stroke:#A80036;stroke-width:1.5;" width="100" x="770" y="458"/><rect fill="#FEFECE" height="10" style="stroke:#A80036;stroke-width:1.5;" width="15" x="850" y="463"/><rect fill="#FEFECE" height="2" style="stroke:#A80036;stroke-width:1.5;" width="4" x="848" y="465"/><rect fill="#FEFECE" height="2" style="stroke:#A80036;stroke-width:1.5;" width="4" x="848" y="469"/><text fill="#000000" font-family="sans-serif" font-size="14" lengthAdjust="spacing" textLength="60" x="785" y="490.9951">S_DataA</text><!--MD5=[0f961488139755faef43611adeaafafc]
entity S_DataB--><rect fill="#FEFECE" filter="url(#f16t4vysoa2ytg)" height="46.2969" style="stroke:#A80036;stroke-width:1.5;" width="100" x="635" y="458"/><rect fill="#FEFECE" height="10" style="stroke:#A80036;stroke-width:1.5;" width="15" x="715" y="463"/><rect fill="#FEFECE" height="2" style="stroke:#A80036;stroke-width:1.5;" width="4" x="713" y="465"/><rect fill="#FEFECE" height="2" style="stroke:#A80036;stroke-width:1.5;" width="4" x="713" y="469"/><text fill="#000000" font-family="sans-serif" font-size="14" lengthAdjust="spacing" textLength="60" x="650" y="490.9951">S_DataB</text><!--MD5=[7a416b291bf7edd0f732723a039fd55c]
entity S_DataC--><rect fill="#FEFECE" filter="url(#f16t4vysoa2ytg)" height="46.2969" style="stroke:#A80036;stroke-width:1.5;" width="100" x="500" y="458"/><rect fill="#FEFECE" height="10" style="stroke:#A80036;stroke-width:1.5;" width="15" x="580" y="463"/><rect fill="#FEFECE" height="2" style="stroke:#A80036;stroke-width:1.5;" width="4" x="578" y="465"/><rect fill="#FEFECE" height="2" style="stroke:#A80036;stroke-width:1.5;" width="4" x="578" y="469"/><text fill="#000000" font-family="sans-serif" font-size="14" lengthAdjust="spacing" textLength="60" x="515" y="490.9951">S_DataC</text><!--MD5=[d8bf7a8e7c7005f2652f605a8428cb7b]
entity S_ExperimentA--><rect fill="#FEFECE" filter="url(#f16t4vysoa2ytg)" height="46.2969" style="stroke:#A80036;stroke-width:1.5;" width="151" x="821.5" y="306"/><rect fill="#FEFECE" height="10" style="stroke:#A80036;stroke-width:1.5;" width="15" x="952.5" y="311"/><rect fill="#FEFECE" height="2" style="stroke:#A80036;stroke-width:1.5;" width="4" x="950.5" y="313"/><rect fill="#FEFECE" height="2" style="stroke:#A80036;stroke-width:1.5;" width="4" x="950.5" y="317"/><text fill="#000000" font-family="sans-serif" font-size="14" lengthAdjust="spacing" textLength="111" x="836.5" y="338.9951">S_ExperimentA</text><!--MD5=[81ff189cffa96326430b1a29d9d21da4]
entity S_ExperimentB--><rect fill="#FEFECE" filter="url(#f16t4vysoa2ytg)" height="46.2969" style="stroke:#A80036;stroke-width:1.5;" width="151" x="635.5" y="306"/><rect fill="#FEFECE" height="10" style="stroke:#A80036;stroke-width:1.5;" width="15" x="766.5" y="311"/><rect fill="#FEFECE" height="2" style="stroke:#A80036;stroke-width:1.5;" width="4" x="764.5" y="313"/><rect fill="#FEFECE" height="2" style="stroke:#A80036;stroke-width:1.5;" width="4" x="764.5" y="317"/><text fill="#000000" font-family="sans-serif" font-size="14" lengthAdjust="spacing" textLength="111" x="650.5" y="338.9951">S_ExperimentB</text><!--MD5=[355fcf14be9fd1673e96e4c9e15992be]
entity S_ExperimentC--><rect fill="#FEFECE" filter="url(#f16t4vysoa2ytg)" height="46.2969" style="stroke:#A80036;stroke-width:1.5;" width="151" x="449.5" y="306"/><rect fill="#FEFECE" height="10" style="stroke:#A80036;stroke-width:1.5;" width="15" x="580.5" y="311"/><rect fill="#FEFECE" height="2" style="stroke:#A80036;stroke-width:1.5;" width="4" x="578.5" y="313"/><rect fill="#FEFECE" height="2" style="stroke:#A80036;stroke-width:1.5;" width="4" x="578.5" y="317"/><text fill="#000000" font-family="sans-serif" font-size="14" lengthAdjust="spacing" textLength="111" x="464.5" y="338.9951">S_ExperimentC</text><!--MD5=[2eeec1a2e19cf2b954e551c6d66b5ad0]
entity P_CRON--><rect fill="#FEFECE" filter="url(#f16t4vysoa2ytg)" height="46.2969" style="stroke:#A80036;stroke-width:1.5;" width="97" x="1104.5" y="306"/><rect fill="#FEFECE" height="10" style="stroke:#A80036;stroke-width:1.5;" width="15" x="1181.5" y="311"/><rect fill="#FEFECE" height="2" style="stroke:#A80036;stroke-width:1.5;" width="4" x="1179.5" y="313"/><rect fill="#FEFECE" height="2" style="stroke:#A80036;stroke-width:1.5;" width="4" x="1179.5" y="317"/><text fill="#000000" font-family="sans-serif" font-size="14" lengthAdjust="spacing" textLength="57" x="1119.5" y="338.9951">P_CRON</text><!--MD5=[9fa8408c2be6b70d34deb5f0d74c5cdd]
entity P_DataA--><rect fill="#FEFECE" filter="url(#f16t4vysoa2ytg)" height="46.2969" style="stroke:#A80036;stroke-width:1.5;" width="100" x="1557" y="458"/><rect fill="#FEFECE" height="10" style="stroke:#A80036;stroke-width:1.5;" width="15" x="1637" y="463"/><rect fill="#FEFECE" height="2" style="stroke:#A80036;stroke-width:1.5;" width="4" x="1635" y="465"/><rect fill="#FEFECE" height="2" style="stroke:#A80036;stroke-width:1.5;" width="4" x="1635" y="469"/><text fill="#000000" font-family="sans-serif" font-size="14" lengthAdjust="spacing" textLength="60" x="1572" y="490.9951">P_DataA</text><!--MD5=[4e634f20cd743ff8b405c4acf6612bb2]
entity P_DataB--><rect fill="#FEFECE" filter="url(#f16t4vysoa2ytg)" height="46.2969" style="stroke:#A80036;stroke-width:1.5;" width="100" x="1422" y="458"/><rect fill="#FEFECE" height="10" style="stroke:#A80036;stroke-width:1.5;" width="15" x="1502" y="463"/><rect fill="#FEFECE" height="2" style="stroke:#A80036;stroke-width:1.5;" width="4" x="1500" y="465"/><rect fill="#FEFECE" height="2" style="stroke:#A80036;stroke-width:1.5;" width="4" x="1500" y="469"/><text fill="#000000" font-family="sans-serif" font-size="14" lengthAdjust="spacing" textLength="60" x="1437" y="490.9951">P_DataB</text><!--MD5=[7c2166bf96a1202a5d9bcebc668fc3d5]
entity P_DataC--><rect fill="#FEFECE" filter="url(#f16t4vysoa2ytg)" height="46.2969" style="stroke:#A80036;stroke-width:1.5;" width="100" x="1287" y="458"/><rect fill="#FEFECE" height="10" style="stroke:#A80036;stroke-width:1.5;" width="15" x="1367" y="463"/><rect fill="#FEFECE" height="2" style="stroke:#A80036;stroke-width:1.5;" width="4" x="1365" y="465"/><rect fill="#FEFECE" height="2" style="stroke:#A80036;stroke-width:1.5;" width="4" x="1365" y="469"/><text fill="#000000" font-family="sans-serif" font-size="14" lengthAdjust="spacing" textLength="60" x="1302" y="490.9951">P_DataC</text><!--MD5=[61d1d0242e477103fe670b87068ea79a]
entity P_ExperimentA--><rect fill="#FEFECE" filter="url(#f16t4vysoa2ytg)" height="46.2969" style="stroke:#A80036;stroke-width:1.5;" width="151" x="1608.5" y="306"/><rect fill="#FEFECE" height="10" style="stroke:#A80036;stroke-width:1.5;" width="15" x="1739.5" y="311"/><rect fill="#FEFECE" height="2" style="stroke:#A80036;stroke-width:1.5;" width="4" x="1737.5" y="313"/><rect fill="#FEFECE" height="2" style="stroke:#A80036;stroke-width:1.5;" width="4" x="1737.5" y="317"/><text fill="#000000" font-family="sans-serif" font-size="14" lengthAdjust="spacing" textLength="111" x="1623.5" y="338.9951">P_ExperimentA</text><!--MD5=[89014eeb61fb904eac47c219b62341cb]
entity P_ExperimentB--><rect fill="#FEFECE" filter="url(#f16t4vysoa2ytg)" height="46.2969" style="stroke:#A80036;stroke-width:1.5;" width="151" x="1422.5" y="306"/><rect fill="#FEFECE" height="10" style="stroke:#A80036;stroke-width:1.5;" width="15" x="1553.5" y="311"/><rect fill="#FEFECE" height="2" style="stroke:#A80036;stroke-width:1.5;" width="4" x="1551.5" y="313"/><rect fill="#FEFECE" height="2" style="stroke:#A80036;stroke-width:1.5;" width="4" x="1551.5" y="317"/><text fill="#000000" font-family="sans-serif" font-size="14" lengthAdjust="spacing" textLength="111" x="1437.5" y="338.9951">P_ExperimentB</text><!--MD5=[1ff87fa9dfb71cb5b869e7e8bde5dc0e]
entity P_ExperimentC--><rect fill="#FEFECE" filter="url(#f16t4vysoa2ytg)" height="46.2969" style="stroke:#A80036;stroke-width:1.5;" width="151" x="1236.5" y="306"/><rect fill="#FEFECE" height="10" style="stroke:#A80036;stroke-width:1.5;" width="15" x="1367.5" y="311"/><rect fill="#FEFECE" height="2" style="stroke:#A80036;stroke-width:1.5;" width="4" x="1365.5" y="313"/><rect fill="#FEFECE" height="2" style="stroke:#A80036;stroke-width:1.5;" width="4" x="1365.5" y="317"/><text fill="#000000" font-family="sans-serif" font-size="14" lengthAdjust="spacing" textLength="111" x="1251.5" y="338.9951">P_ExperimentC</text><!--MD5=[8542d3c4667b51f1062a6130d5d31d3f]
entity XML--><ellipse cx="239" cy="14" fill="#FEFECE" filter="url(#f16t4vysoa2ytg)" rx="8" ry="8" style="stroke:#A80036;stroke-width:1.5;"/><text fill="#000000" font-family="sans-serif" font-size="14" lengthAdjust="spacing" textLength="30" x="224" y="43.9951">XML</text><!--MD5=[c470d76c68afda2f5e9525cd4f85a320]
entity JSON--><ellipse cx="328" cy="14" fill="#FEFECE" filter="url(#f16t4vysoa2ytg)" rx="8" ry="8" style="stroke:#A80036;stroke-width:1.5;"/><text fill="#000000" font-family="sans-serif" font-size="14" lengthAdjust="spacing" textLength="34" x="311" y="43.9951">JSON</text><!--MD5=[49f01e80b9b7ed5ac4c62e42b9014098]
entity ElectronApps--><ellipse cx="55" cy="329" fill="#FEFECE" filter="url(#f16t4vysoa2ytg)" rx="8" ry="8" style="stroke:#A80036;stroke-width:1.5;"/><text fill="#000000" font-family="sans-serif" font-size="14" lengthAdjust="spacing" textLength="98" x="6" y="358.9951">ElectronApps</text><!--MD5=[907df72fbbecbad018b0540ed2bffab7]
entity MobileApps--><ellipse cx="197" cy="329" fill="#FEFECE" filter="url(#f16t4vysoa2ytg)" rx="8" ry="8" style="stroke:#A80036;stroke-width:1.5;"/><text fill="#000000" font-family="sans-serif" font-size="14" lengthAdjust="spacing" textLength="85" x="154.5" y="358.9951">MobileApps</text><!--MD5=[559999df657540dbf8f2170dae676317]
link GIT to BuildProcess--><path d="M292.367,133 C303.783,133 315.2,133 326.616,133 " fill="none" id="GIT-BuildProcess" style="stroke:#A80036;stroke-width:1.0;"/><!--MD5=[e09825669451c5bf93a65731050d2015]
link BuildProcess to BuildListing--><path d="M457.145,133 C468.679,133 480.214,133 491.749,133 " fill="none" id="BuildProcess-BuildListing" style="stroke:#A80036;stroke-width:1.0;"/><!--MD5=[473a9bd311ff378df3b944c922087996]
link XML to GIT--><path d="M248.15,22.905 C255.298,29.628 264.856,39.93 270,51 C280.354,73.28 282.657,102.312 283.058,118.88 " fill="none" id="XML-to-GIT" style="stroke:#A80036;stroke-width:1.0;"/><polygon fill="#A80036" points="283.13,123.993,287.001,114.9368,283.0586,118.9935,279.0018,115.0511,283.13,123.993" style="stroke:#A80036;stroke-width:1.0;"/><!--MD5=[3d715daef7e68d317b0486f27a994155]
link JSON to GIT--><path d="M323.202,23.094 C319.082,30.263 313.164,41.098 309,51 C299.226,74.24 290.926,102.502 286.481,118.755 " fill="none" id="JSON-to-GIT" style="stroke:#A80036;stroke-width:1.0;"/><polygon fill="#A80036" points="285.124,123.782,291.331,116.1352,286.4269,118.9547,283.6074,114.0506,285.124,123.782" style="stroke:#A80036;stroke-width:1.0;"/><!--MD5=[093f1db388df8e782cfa6074f8019965]
link S_ExperimentA to S_DataA--><path d="M885.638,352.133 C871.82,379.053 848.51,424.461 833.708,453.296 " fill="none" id="S_ExperimentA-to-S_DataA" style="stroke:#A80036;stroke-width:1.0;"/><polygon fill="#A80036" points="831.408,457.776,839.0758,451.595,833.6908,453.3275,831.9583,447.9425,831.408,457.776" style="stroke:#A80036;stroke-width:1.0;"/><!--MD5=[af69713348f5e3621878a29417164b13]
link S_ExperimentB to S_DataB--><path d="M707.164,352.133 C702.536,378.831 694.756,423.715 689.753,452.581 " fill="none" id="S_ExperimentB-to-S_DataB" style="stroke:#A80036;stroke-width:1.0;"/><polygon fill="#A80036" points="688.852,457.776,694.3311,449.5919,689.7064,452.8495,686.4488,448.2248,688.852,457.776" style="stroke:#A80036;stroke-width:1.0;"/><!--MD5=[38744a7ff9481b1720869fadf0c43d94]
link S_ExperimentC to S_DataC--><path d="M528.689,352.133 C533.139,378.831 540.619,423.715 545.43,452.581 " fill="none" id="S_ExperimentC-to-S_DataC" style="stroke:#A80036;stroke-width:1.0;"/><polygon fill="#A80036" points="546.296,457.776,548.7602,448.2404,545.4731,452.8442,540.8693,449.5571,546.296,457.776" style="stroke:#A80036;stroke-width:1.0;"/><!--MD5=[d5b21d23e7f96f2311566f5188465aa1]
link S_CRON to S_Postgres--><path d="M380.608,352.133 C394.162,372.6695 414.8175,403.966 432.3006,430.4556 C441.0422,443.7004 448.9907,455.7435 454.8618,464.639 C455.5957,465.751 456.2971,466.8137 456.9636,467.8235 " fill="none" id="S_CRON-to-S_Postgres" style="stroke:#A80036;stroke-width:1.0;"/><polygon fill="#A80036" points="456.9636,467.8235,455.3443,458.1087,454.2093,463.6505,448.6675,462.5155,456.9636,467.8235" style="stroke:#A80036;stroke-width:1.0;"/><!--MD5=[0896deb75accb899b32bca2b6740c235]
link P_ExperimentA to P_DataA--><path d="M1672.64,352.133 C1658.82,379.053 1635.51,424.461 1620.71,453.296 " fill="none" id="P_ExperimentA-to-P_DataA" style="stroke:#A80036;stroke-width:1.0;"/><polygon fill="#A80036" points="1618.41,457.776,1626.073,451.589,1620.6893,453.3258,1618.9526,447.9421,1618.41,457.776" style="stroke:#A80036;stroke-width:1.0;"/><!--MD5=[649b149a14b92b4babd1d967373d73d6]
link P_ExperimentB to P_DataB--><path d="M1494.16,352.133 C1489.54,378.831 1481.76,423.715 1476.75,452.581 " fill="none" id="P_ExperimentB-to-P_DataB" style="stroke:#A80036;stroke-width:1.0;"/><polygon fill="#A80036" points="1475.85,457.776,1481.3283,449.5914,1476.7039,452.8495,1473.4458,448.2251,1475.85,457.776" style="stroke:#A80036;stroke-width:1.0;"/><!--MD5=[52576cb337e425175afa6c3ae8d3d85d]
link P_ExperimentC to P_DataC--><path d="M1315.69,352.133 C1320.14,378.831 1327.62,423.715 1332.43,452.581 " fill="none" id="P_ExperimentC-to-P_DataC" style="stroke:#A80036;stroke-width:1.0;"/><polygon fill="#A80036" points="1333.3,457.776,1335.7633,448.2402,1332.4766,452.8443,1327.8725,449.5576,1333.3,457.776" style="stroke:#A80036;stroke-width:1.0;"/><!--MD5=[367e2ce3183edd6b23add6ebea02d7ec]
link P_CRON to P_Postgres--><path d="M1167.61,352.133 C1181.165,372.6695 1201.82,403.966 1219.3025,430.4556 C1228.0437,443.7004 1235.9919,455.7435 1241.8628,464.639 C1242.5967,465.751 1243.2981,466.8137 1243.9645,467.8235 " fill="none" id="P_CRON-to-P_Postgres" style="stroke:#A80036;stroke-width:1.0;"/><polygon fill="#A80036" points="1243.9645,467.8235,1242.3454,458.1087,1241.2103,463.6505,1235.6685,462.5154,1243.9645,467.8235" style="stroke:#A80036;stroke-width:1.0;"/><!--MD5=[3a705f838a7e54c6a966c0a6af2a86b9]
link BuildServer to ElectronApps--><path d="M230.8623,137.5498 C230.6726,137.6356 230.4799,137.723 230.2844,137.8118 C229.8934,137.9894 229.491,138.173 229.0775,138.3625 C228.2505,138.7415 227.3793,139.144 226.4666,139.5697 C219.1654,142.975 209.2147,147.8598 198.088,153.9959 C175.8345,166.268 148.8765,183.545 129,204 C95.3998,238.578 70.52,291.185 60.2214,315.218 " fill="none" id="BuildServer-to-ElectronApps" style="stroke:#A80036;stroke-width:1.0;"/><polygon fill="#A80036" points="58.2472,319.896,65.4321,313.1597,60.1915,315.2895,58.0617,310.0489,58.2472,319.896" style="stroke:#A80036;stroke-width:1.0;"/><!--MD5=[99d0f2f2b81e726fb6d9737c556cf4f1]
link BuildServer to MobileApps--><path d="M230.9552,171.1593 C230.8459,171.6643 230.7358,172.1728 230.6249,172.6848 C230.4032,173.7088 230.1786,174.7466 229.9511,175.7973 C229.4961,177.8987 229.03,180.052 228.554,182.2504 C226.6502,191.044 224.5901,200.56 222.466,210.3711 C213.9697,249.6158 204.451,293.584 199.827,314.943 " fill="none" id="BuildServer-to-MobileApps" style="stroke:#A80036;stroke-width:1.0;"/><polygon fill="#A80036" points="198.751,319.911,204.5656,311.9618,199.8095,315.0243,196.7469,310.2682,198.751,319.911" style="stroke:#A80036;stroke-width:1.0;"/><!--MD5=[f0bebe43cf872da3ce97bdfb77545c13]
link BuildServer to Staging--><path d="M251.2244,180.2768 C251.2636,180.3829 251.3029,180.489 251.3423,180.595 C251.4211,180.8072 251.5002,181.0192 251.5798,181.2311 C252.2164,182.9264 252.8783,184.614 253.5658,186.2835 C254.9408,189.6225 256.4181,192.8891 258,196 C260.015,199.962 262.295,199.896 264,204 C266.6294,210.3278 268.8842,216.9757 270.8168,223.7693 C271.7832,227.166 272.6689,230.5992 273.4807,234.047 C273.5822,234.4779 273.6825,234.9091 273.7817,235.3405 C273.8313,235.5562 273.8806,235.7719 273.9296,235.9877 " fill="none" id="BuildServer-to-Staging" style="stroke:#A80036;stroke-width:1.0;"/><polygon fill="#A80036" points="273.9296,235.9877,275.8366,226.3252,272.822,231.1119,268.0353,228.0974,273.9296,235.9877" style="stroke:#A80036;stroke-width:1.0;"/><!--MD5=[2acaeb5e09c0bf6380ae3bbd896cf059]
link BuildServer to Production--><path d="M245.837,180.2451 C245.9283,180.4432 246.0207,180.6408 246.1142,180.8377 C246.3012,181.2315 246.4929,181.6227 246.6892,182.0112 C247.0819,182.7881 247.4934,183.5539 247.9246,184.3066 C248.787,185.8118 249.7282,187.2645 250.755,188.6484 C252.8088,191.4164 255.2052,193.9096 258,196 C274.261,208.163 971.222,194.186 989,204 C1017.26,219.6 1037.0825,249.8825 1049.9263,276.6154 C1053.1372,283.2986 1055.912,289.76 1058.2733,295.7146 C1058.8637,297.2033 1059.4282,298.6602 1059.9672,300.0811 C1060.2367,300.7915 1060.4999,301.493 1060.7567,302.1848 C1060.8209,302.3577 1060.8847,302.5301 1060.9481,302.7018 " fill="none" id="BuildServer-to-Production" style="stroke:#A80036;stroke-width:1.0;"/><polygon fill="#A80036" points="1060.9481,302.7018,1061.5831,292.8735,1059.2163,298.0113,1054.0784,295.6445,1060.9481,302.7018" style="stroke:#A80036;stroke-width:1.0;"/><!--MD5=[1b91ac6c76167526f56b3686a8bbd7fa]
@startuml
package "BuildServer" {
  GIT - [BuildProcess]
  [BuildProcess] - BuildListing
}

XML - -> GIT
JSON - -> GIT

package "Staging" {
  database "S_Postgres" {
    [S_DataA]
    [S_DataB]
    [S_DataC]
  }
  folder "S_Tomcat" {
    [S_ExperimentA] - -> S_DataA
    [S_ExperimentB] - -> S_DataB
    [S_ExperimentC] - -> S_DataC
  }
  [S_CRON] - -> S_Postgres 
}

package "Production" {
  database "P_Postgres" {
    [P_DataA]
    [P_DataB]
    [P_DataC]
  }
  folder "P_Tomcat" {
    [P_ExperimentA] - -> P_DataA
    [P_ExperimentB] - -> P_DataB
    [P_ExperimentC] - -> P_DataC
  }
  [P_CRON] - -> P_Postgres 
}

BuildServer - -> ElectronApps
BuildServer - -> MobileApps

BuildServer - -> Staging
BuildServer - -> Production
@enduml

PlantUML version 1.2021.8beta3(Unknown compile time)
(GPL source distribution)
Java Runtime: Java(TM) SE Runtime Environment
JVM: Java HotSpot(TM) 64-Bit Server VM
Default Encoding: UTF-8
Language: en
Country: US
--></g></svg>