<?xml version="1.0" encoding="UTF-8" standalone="no"?><svg xmlns="http://www.w3.org/2000/svg" xmlns:xlink="http://www.w3.org/1999/xlink" contentScriptType="application/ecmascript" contentStyleType="text/css" height="595px" preserveAspectRatio="none" style="width:1825px;height:595px;background:#FFFFFF;" version="1.1" viewBox="0 0 1825 595" width="1825px" zoomAndPan="magnify"><defs><filter height="300%" id="f1etr27y05gc26" width="300%" x="-1" y="-1"><feGaussianBlur result="blurOut" stdDeviation="2.0"/><feColorMatrix in="blurOut" result="blurOut2" type="matrix" values="0 0 0 0 0 0 0 0 0 0 0 0 0 0 0 0 0 0 .4 0"/><feOffset dx="4.0" dy="4.0" in="blurOut2" result="blurOut3"/><feBlend in="SourceGraphic" in2="blurOut3" mode="normal"/></filter></defs><g><text fill="#000000" font-family="sans-serif" font-size="18" lengthAdjust="spacing" textLength="1107" x="352.5" y="16.708">Overview of the Frinex build server when configured to deploy to separate tomcat servers for staging and production.</text><!--MD5=[6ef21aca39c11011116536f0bdb76d1e]
cluster BuildServer--><polygon fill="#FFFFFF" filter="url(#f1etr27y05gc26)" points="231,87.9531,329,87.9531,336,110.25,534,110.25,534,200.9531,231,200.9531,231,87.9531" style="stroke:#000000;stroke-width:1.5;"/><line style="stroke:#000000;stroke-width:1.5;" x1="231" x2="336" y1="110.25" y2="110.25"/><text fill="#000000" font-family="sans-serif" font-size="14" font-weight="bold" lengthAdjust="spacing" textLength="92" x="235" y="102.9482">BuildServer</text><!--MD5=[21d3bc2ca15d029df2435d856c261771]
cluster Staging--><polygon fill="#FFFFFF" filter="url(#f1etr27y05gc26)" points="274,240.9531,343,240.9531,350,263.25,1021,263.25,1021,588.9531,274,588.9531,274,240.9531" style="stroke:#000000;stroke-width:1.5;"/><line style="stroke:#000000;stroke-width:1.5;" x1="274" x2="350" y1="263.25" y2="263.25"/><text fill="#000000" font-family="sans-serif" font-size="14" font-weight="bold" lengthAdjust="spacing" textLength="63" x="278" y="255.9482">Staging</text><!--MD5=[a5b2bbcb43362595c29473893becfcce]
cluster S_Postgres--><path d="M457,430.9531 C457,420.9531 675.5,420.9531 675.5,420.9531 C675.5,420.9531 894,420.9531 894,430.9531 L894,538.9531 C894,548.9531 675.5,548.9531 675.5,548.9531 C675.5,548.9531 457,548.9531 457,538.9531 L457,430.9531 " fill="#FFFFFF" filter="url(#f1etr27y05gc26)" style="stroke:#000000;stroke-width:1.5;"/><path d="M457,430.9531 C457,440.9531 675.5,440.9531 675.5,440.9531 C675.5,440.9531 894,440.9531 894,430.9531 " fill="none" style="stroke:#000000;stroke-width:1.5;"/><text fill="#000000" font-family="sans-serif" font-size="14" font-weight="bold" lengthAdjust="spacing" textLength="89" x="631" y="455.9482">S_Postgres</text><!--MD5=[5ee479c350b404bc2fbbd00b78662128]
cluster S_Tomcat--><polygon fill="#FFFFFF" filter="url(#f1etr27y05gc26)" points="433,291.9531,519,291.9531,526,314.25,989,314.25,989,388.9531,433,388.9531,433,291.9531" style="stroke:#000000;stroke-width:1.5;"/><line style="stroke:#000000;stroke-width:1.5;" x1="433" x2="526" y1="314.25" y2="314.25"/><text fill="#000000" font-family="sans-serif" font-size="14" font-weight="bold" lengthAdjust="spacing" textLength="80" x="437" y="306.9482">S_Tomcat</text><!--MD5=[70c5155dc2d6bfca20cea34af46dc1c3]
cluster Production--><polygon fill="#FFFFFF" filter="url(#f1etr27y05gc26)" points="1061,240.9531,1156,240.9531,1163,263.25,1808,263.25,1808,588.9531,1061,588.9531,1061,240.9531" style="stroke:#000000;stroke-width:1.5;"/><line style="stroke:#000000;stroke-width:1.5;" x1="1061" x2="1163" y1="263.25" y2="263.25"/><text fill="#000000" font-family="sans-serif" font-size="14" font-weight="bold" lengthAdjust="spacing" textLength="89" x="1065" y="255.9482">Production</text><!--MD5=[a498d3f8770df7c2628f8489445be243]
cluster P_Postgres--><path d="M1244,430.9531 C1244,420.9531 1462.5,420.9531 1462.5,420.9531 C1462.5,420.9531 1681,420.9531 1681,430.9531 L1681,538.9531 C1681,548.9531 1462.5,548.9531 1462.5,548.9531 C1462.5,548.9531 1244,548.9531 1244,538.9531 L1244,430.9531 " fill="#FFFFFF" filter="url(#f1etr27y05gc26)" style="stroke:#000000;stroke-width:1.5;"/><path d="M1244,430.9531 C1244,440.9531 1462.5,440.9531 1462.5,440.9531 C1462.5,440.9531 1681,440.9531 1681,430.9531 " fill="none" style="stroke:#000000;stroke-width:1.5;"/><text fill="#000000" font-family="sans-serif" font-size="14" font-weight="bold" lengthAdjust="spacing" textLength="89" x="1418" y="455.9482">P_Postgres</text><!--MD5=[bc722b1a1f6cb95a0f3f5c3c4b34d3d8]
cluster P_Tomcat--><polygon fill="#FFFFFF" filter="url(#f1etr27y05gc26)" points="1220,291.9531,1306,291.9531,1313,314.25,1776,314.25,1776,388.9531,1220,388.9531,1220,291.9531" style="stroke:#000000;stroke-width:1.5;"/><line style="stroke:#000000;stroke-width:1.5;" x1="1220" x2="1313" y1="314.25" y2="314.25"/><text fill="#000000" font-family="sans-serif" font-size="14" font-weight="bold" lengthAdjust="spacing" textLength="80" x="1224" y="306.9482">P_Tomcat</text><!--MD5=[8508ee80f51d2ab8da2f58bb9291871b]
entity GIT--><ellipse cx="283" cy="153.9531" fill="#FEFECE" filter="url(#f1etr27y05gc26)" rx="8" ry="8" style="stroke:#A80036;stroke-width:1.5;"/><text fill="#000000" font-family="sans-serif" font-size="14" lengthAdjust="spacing" textLength="24" x="271" y="183.9482">GIT</text><!--MD5=[c212259dc7d3920de60008eab0b8d272]
entity BuildProcess--><rect fill="#FEFECE" filter="url(#f1etr27y05gc26)" height="46.2969" style="stroke:#A80036;stroke-width:1.5;" width="130" x="327" y="130.9531"/><rect fill="#FEFECE" height="10" style="stroke:#A80036;stroke-width:1.5;" width="15" x="437" y="135.9531"/><rect fill="#FEFECE" height="2" style="stroke:#A80036;stroke-width:1.5;" width="4" x="435" y="137.9531"/><rect fill="#FEFECE" height="2" style="stroke:#A80036;stroke-width:1.5;" width="4" x="435" y="141.9531"/><text fill="#000000" font-family="sans-serif" font-size="14" lengthAdjust="spacing" textLength="90" x="342" y="163.9482">BuildProcess</text><!--MD5=[67cf98da98c31b99946e7c07ba74794c]
entity BuildListing--><ellipse cx="501" cy="153.9531" fill="#FEFECE" filter="url(#f1etr27y05gc26)" rx="8" ry="8" style="stroke:#A80036;stroke-width:1.5;"/><text fill="#000000" font-family="sans-serif" font-size="14" lengthAdjust="spacing" textLength="83" x="459.5" y="183.9482">BuildListing</text><!--MD5=[fc6f67bee88772bea413f15dee7f1380]
entity S_CRON--><rect fill="#FEFECE" filter="url(#f1etr27y05gc26)" height="46.2969" style="stroke:#A80036;stroke-width:1.5;" width="97" x="317.5" y="326.9531"/><rect fill="#FEFECE" height="10" style="stroke:#A80036;stroke-width:1.5;" width="15" x="394.5" y="331.9531"/><rect fill="#FEFECE" height="2" style="stroke:#A80036;stroke-width:1.5;" width="4" x="392.5" y="333.9531"/><rect fill="#FEFECE" height="2" style="stroke:#A80036;stroke-width:1.5;" width="4" x="392.5" y="337.9531"/><text fill="#000000" font-family="sans-serif" font-size="14" lengthAdjust="spacing" textLength="57" x="332.5" y="359.9482">S_CRON</text><!--MD5=[1de265db52d8aabefbf84b67ca7b8570]
entity S_ExperimentA_DB--><rect fill="#FEFECE" filter="url(#f1etr27y05gc26)" height="46.2969" style="stroke:#A80036;stroke-width:1.5;" width="100" x="770" y="478.9531"/><rect fill="#FEFECE" height="10" style="stroke:#A80036;stroke-width:1.5;" width="15" x="850" y="483.9531"/><rect fill="#FEFECE" height="2" style="stroke:#A80036;stroke-width:1.5;" width="4" x="848" y="485.9531"/><rect fill="#FEFECE" height="2" style="stroke:#A80036;stroke-width:1.5;" width="4" x="848" y="489.9531"/><text fill="#000000" font-family="sans-serif" font-size="14" lengthAdjust="spacing" textLength="60" x="785" y="511.9482">S_ExperimentA_DB</text><!--MD5=[0f961488139755faef43611adeaafafc]
entity S_ExperimentB_DB--><rect fill="#FEFECE" filter="url(#f1etr27y05gc26)" height="46.2969" style="stroke:#A80036;stroke-width:1.5;" width="100" x="635" y="478.9531"/><rect fill="#FEFECE" height="10" style="stroke:#A80036;stroke-width:1.5;" width="15" x="715" y="483.9531"/><rect fill="#FEFECE" height="2" style="stroke:#A80036;stroke-width:1.5;" width="4" x="713" y="485.9531"/><rect fill="#FEFECE" height="2" style="stroke:#A80036;stroke-width:1.5;" width="4" x="713" y="489.9531"/><text fill="#000000" font-family="sans-serif" font-size="14" lengthAdjust="spacing" textLength="60" x="650" y="511.9482">S_ExperimentB_DB</text><!--MD5=[7a416b291bf7edd0f732723a039fd55c]
entity S_ExperimentC_DB--><rect fill="#FEFECE" filter="url(#f1etr27y05gc26)" height="46.2969" style="stroke:#A80036;stroke-width:1.5;" width="100" x="500" y="478.9531"/><rect fill="#FEFECE" height="10" style="stroke:#A80036;stroke-width:1.5;" width="15" x="580" y="483.9531"/><rect fill="#FEFECE" height="2" style="stroke:#A80036;stroke-width:1.5;" width="4" x="578" y="485.9531"/><rect fill="#FEFECE" height="2" style="stroke:#A80036;stroke-width:1.5;" width="4" x="578" y="489.9531"/><text fill="#000000" font-family="sans-serif" font-size="14" lengthAdjust="spacing" textLength="60" x="515" y="511.9482">S_ExperimentC_DB</text><!--MD5=[d8bf7a8e7c7005f2652f605a8428cb7b]
entity S_ExperimentA--><rect fill="#FEFECE" filter="url(#f1etr27y05gc26)" height="46.2969" style="stroke:#A80036;stroke-width:1.5;" width="151" x="821.5" y="326.9531"/><rect fill="#FEFECE" height="10" style="stroke:#A80036;stroke-width:1.5;" width="15" x="952.5" y="331.9531"/><rect fill="#FEFECE" height="2" style="stroke:#A80036;stroke-width:1.5;" width="4" x="950.5" y="333.9531"/><rect fill="#FEFECE" height="2" style="stroke:#A80036;stroke-width:1.5;" width="4" x="950.5" y="337.9531"/><text fill="#000000" font-family="sans-serif" font-size="14" lengthAdjust="spacing" textLength="111" x="836.5" y="359.9482">S_ExperimentA</text><!--MD5=[81ff189cffa96326430b1a29d9d21da4]
entity S_ExperimentB--><rect fill="#FEFECE" filter="url(#f1etr27y05gc26)" height="46.2969" style="stroke:#A80036;stroke-width:1.5;" width="151" x="635.5" y="326.9531"/><rect fill="#FEFECE" height="10" style="stroke:#A80036;stroke-width:1.5;" width="15" x="766.5" y="331.9531"/><rect fill="#FEFECE" height="2" style="stroke:#A80036;stroke-width:1.5;" width="4" x="764.5" y="333.9531"/><rect fill="#FEFECE" height="2" style="stroke:#A80036;stroke-width:1.5;" width="4" x="764.5" y="337.9531"/><text fill="#000000" font-family="sans-serif" font-size="14" lengthAdjust="spacing" textLength="111" x="650.5" y="359.9482">S_ExperimentB</text><!--MD5=[355fcf14be9fd1673e96e4c9e15992be]
entity S_ExperimentC--><rect fill="#FEFECE" filter="url(#f1etr27y05gc26)" height="46.2969" style="stroke:#A80036;stroke-width:1.5;" width="151" x="449.5" y="326.9531"/><rect fill="#FEFECE" height="10" style="stroke:#A80036;stroke-width:1.5;" width="15" x="580.5" y="331.9531"/><rect fill="#FEFECE" height="2" style="stroke:#A80036;stroke-width:1.5;" width="4" x="578.5" y="333.9531"/><rect fill="#FEFECE" height="2" style="stroke:#A80036;stroke-width:1.5;" width="4" x="578.5" y="337.9531"/><text fill="#000000" font-family="sans-serif" font-size="14" lengthAdjust="spacing" textLength="111" x="464.5" y="359.9482">S_ExperimentC</text><!--MD5=[2eeec1a2e19cf2b954e551c6d66b5ad0]
entity P_CRON--><rect fill="#FEFECE" filter="url(#f1etr27y05gc26)" height="46.2969" style="stroke:#A80036;stroke-width:1.5;" width="97" x="1104.5" y="326.9531"/><rect fill="#FEFECE" height="10" style="stroke:#A80036;stroke-width:1.5;" width="15" x="1181.5" y="331.9531"/><rect fill="#FEFECE" height="2" style="stroke:#A80036;stroke-width:1.5;" width="4" x="1179.5" y="333.9531"/><rect fill="#FEFECE" height="2" style="stroke:#A80036;stroke-width:1.5;" width="4" x="1179.5" y="337.9531"/><text fill="#000000" font-family="sans-serif" font-size="14" lengthAdjust="spacing" textLength="57" x="1119.5" y="359.9482">P_CRON</text><!--MD5=[9fa8408c2be6b70d34deb5f0d74c5cdd]
entity P_ExperimentA_DB--><rect fill="#FEFECE" filter="url(#f1etr27y05gc26)" height="46.2969" style="stroke:#A80036;stroke-width:1.5;" width="100" x="1557" y="478.9531"/><rect fill="#FEFECE" height="10" style="stroke:#A80036;stroke-width:1.5;" width="15" x="1637" y="483.9531"/><rect fill="#FEFECE" height="2" style="stroke:#A80036;stroke-width:1.5;" width="4" x="1635" y="485.9531"/><rect fill="#FEFECE" height="2" style="stroke:#A80036;stroke-width:1.5;" width="4" x="1635" y="489.9531"/><text fill="#000000" font-family="sans-serif" font-size="14" lengthAdjust="spacing" textLength="60" x="1572" y="511.9482">P_ExperimentA_DB</text><!--MD5=[4e634f20cd743ff8b405c4acf6612bb2]
entity P_ExperimentB_DB--><rect fill="#FEFECE" filter="url(#f1etr27y05gc26)" height="46.2969" style="stroke:#A80036;stroke-width:1.5;" width="100" x="1422" y="478.9531"/><rect fill="#FEFECE" height="10" style="stroke:#A80036;stroke-width:1.5;" width="15" x="1502" y="483.9531"/><rect fill="#FEFECE" height="2" style="stroke:#A80036;stroke-width:1.5;" width="4" x="1500" y="485.9531"/><rect fill="#FEFECE" height="2" style="stroke:#A80036;stroke-width:1.5;" width="4" x="1500" y="489.9531"/><text fill="#000000" font-family="sans-serif" font-size="14" lengthAdjust="spacing" textLength="60" x="1437" y="511.9482">P_ExperimentB_DB</text><!--MD5=[7c2166bf96a1202a5d9bcebc668fc3d5]
entity P_ExperimentC_DB--><rect fill="#FEFECE" filter="url(#f1etr27y05gc26)" height="46.2969" style="stroke:#A80036;stroke-width:1.5;" width="100" x="1287" y="478.9531"/><rect fill="#FEFECE" height="10" style="stroke:#A80036;stroke-width:1.5;" width="15" x="1367" y="483.9531"/><rect fill="#FEFECE" height="2" style="stroke:#A80036;stroke-width:1.5;" width="4" x="1365" y="485.9531"/><rect fill="#FEFECE" height="2" style="stroke:#A80036;stroke-width:1.5;" width="4" x="1365" y="489.9531"/><text fill="#000000" font-family="sans-serif" font-size="14" lengthAdjust="spacing" textLength="60" x="1302" y="511.9482">P_ExperimentC_DB</text><!--MD5=[61d1d0242e477103fe670b87068ea79a]
entity P_ExperimentA--><rect fill="#FEFECE" filter="url(#f1etr27y05gc26)" height="46.2969" style="stroke:#A80036;stroke-width:1.5;" width="151" x="1608.5" y="326.9531"/><rect fill="#FEFECE" height="10" style="stroke:#A80036;stroke-width:1.5;" width="15" x="1739.5" y="331.9531"/><rect fill="#FEFECE" height="2" style="stroke:#A80036;stroke-width:1.5;" width="4" x="1737.5" y="333.9531"/><rect fill="#FEFECE" height="2" style="stroke:#A80036;stroke-width:1.5;" width="4" x="1737.5" y="337.9531"/><text fill="#000000" font-family="sans-serif" font-size="14" lengthAdjust="spacing" textLength="111" x="1623.5" y="359.9482">P_ExperimentA</text><!--MD5=[89014eeb61fb904eac47c219b62341cb]
entity P_ExperimentB--><rect fill="#FEFECE" filter="url(#f1etr27y05gc26)" height="46.2969" style="stroke:#A80036;stroke-width:1.5;" width="151" x="1422.5" y="326.9531"/><rect fill="#FEFECE" height="10" style="stroke:#A80036;stroke-width:1.5;" width="15" x="1553.5" y="331.9531"/><rect fill="#FEFECE" height="2" style="stroke:#A80036;stroke-width:1.5;" width="4" x="1551.5" y="333.9531"/><rect fill="#FEFECE" height="2" style="stroke:#A80036;stroke-width:1.5;" width="4" x="1551.5" y="337.9531"/><text fill="#000000" font-family="sans-serif" font-size="14" lengthAdjust="spacing" textLength="111" x="1437.5" y="359.9482">P_ExperimentB</text><!--MD5=[1ff87fa9dfb71cb5b869e7e8bde5dc0e]
entity P_ExperimentC--><rect fill="#FEFECE" filter="url(#f1etr27y05gc26)" height="46.2969" style="stroke:#A80036;stroke-width:1.5;" width="151" x="1236.5" y="326.9531"/><rect fill="#FEFECE" height="10" style="stroke:#A80036;stroke-width:1.5;" width="15" x="1367.5" y="331.9531"/><rect fill="#FEFECE" height="2" style="stroke:#A80036;stroke-width:1.5;" width="4" x="1365.5" y="333.9531"/><rect fill="#FEFECE" height="2" style="stroke:#A80036;stroke-width:1.5;" width="4" x="1365.5" y="337.9531"/><text fill="#000000" font-family="sans-serif" font-size="14" lengthAdjust="spacing" textLength="111" x="1251.5" y="359.9482">P_ExperimentC</text><!--MD5=[8542d3c4667b51f1062a6130d5d31d3f]
entity XML--><ellipse cx="239" cy="34.9531" fill="#FEFECE" filter="url(#f1etr27y05gc26)" rx="8" ry="8" style="stroke:#A80036;stroke-width:1.5;"/><text fill="#000000" font-family="sans-serif" font-size="14" lengthAdjust="spacing" textLength="30" x="224" y="64.9482">XML</text><!--MD5=[c470d76c68afda2f5e9525cd4f85a320]
entity JSON--><ellipse cx="328" cy="34.9531" fill="#FEFECE" filter="url(#f1etr27y05gc26)" rx="8" ry="8" style="stroke:#A80036;stroke-width:1.5;"/><text fill="#000000" font-family="sans-serif" font-size="14" lengthAdjust="spacing" textLength="34" x="311" y="64.9482">JSON</text><!--MD5=[49f01e80b9b7ed5ac4c62e42b9014098]
entity ElectronApps--><ellipse cx="55" cy="349.9531" fill="#FEFECE" filter="url(#f1etr27y05gc26)" rx="8" ry="8" style="stroke:#A80036;stroke-width:1.5;"/><text fill="#000000" font-family="sans-serif" font-size="14" lengthAdjust="spacing" textLength="98" x="6" y="379.9482">ElectronApps</text><!--MD5=[907df72fbbecbad018b0540ed2bffab7]
entity MobileApps--><ellipse cx="197" cy="349.9531" fill="#FEFECE" filter="url(#f1etr27y05gc26)" rx="8" ry="8" style="stroke:#A80036;stroke-width:1.5;"/><text fill="#000000" font-family="sans-serif" font-size="14" lengthAdjust="spacing" textLength="85" x="154.5" y="379.9482">MobileApps</text><!--MD5=[559999df657540dbf8f2170dae676317]
link GIT to BuildProcess--><path d="M292.367,153.9531 C303.783,153.9531 315.2,153.9531 326.616,153.9531 " fill="none" id="GIT-BuildProcess" style="stroke:#A80036;stroke-width:1.0;"/><!--MD5=[e09825669451c5bf93a65731050d2015]
link BuildProcess to BuildListing--><path d="M457.145,153.9531 C468.679,153.9531 480.214,153.9531 491.749,153.9531 " fill="none" id="BuildProcess-BuildListing" style="stroke:#A80036;stroke-width:1.0;"/><!--MD5=[473a9bd311ff378df3b944c922087996]
link XML to GIT--><path d="M248.15,43.8581 C255.298,50.5811 264.856,60.8831 270,71.9531 C280.354,94.2331 282.657,123.2651 283.058,139.8331 " fill="none" id="XML-to-GIT" style="stroke:#A80036;stroke-width:1.0;"/><polygon fill="#A80036" points="283.13,144.9461,287.001,135.8899,283.0586,139.9466,279.0018,136.0042,283.13,144.9461" style="stroke:#A80036;stroke-width:1.0;"/><!--MD5=[3d715daef7e68d317b0486f27a994155]
link JSON to GIT--><path d="M323.202,44.0471 C319.082,51.2161 313.164,62.0511 309,71.9531 C299.226,95.1931 290.926,123.4551 286.481,139.7081 " fill="none" id="JSON-to-GIT" style="stroke:#A80036;stroke-width:1.0;"/><polygon fill="#A80036" points="285.124,144.7351,291.331,137.0884,286.4269,139.9079,283.6074,135.0037,285.124,144.7351" style="stroke:#A80036;stroke-width:1.0;"/><!--MD5=[093f1db388df8e782cfa6074f8019965]
link S_ExperimentA to S_ExperimentA_DB--><path d="M885.638,373.0861 C871.82,400.0061 848.51,445.4141 833.708,474.2491 " fill="none" id="S_ExperimentA-to-S_ExperimentA_DB" style="stroke:#A80036;stroke-width:1.0;"/><polygon fill="#A80036" points="831.408,478.7291,839.0758,472.5481,833.6908,474.2807,831.9583,468.8957,831.408,478.7291" style="stroke:#A80036;stroke-width:1.0;"/><!--MD5=[af69713348f5e3621878a29417164b13]
link S_ExperimentB to S_ExperimentB_DB--><path d="M707.164,373.0861 C702.536,399.7841 694.756,444.6681 689.753,473.5341 " fill="none" id="S_ExperimentB-to-S_ExperimentB_DB" style="stroke:#A80036;stroke-width:1.0;"/><polygon fill="#A80036" points="688.852,478.7291,694.3311,470.545,689.7064,473.8027,686.4488,469.178,688.852,478.7291" style="stroke:#A80036;stroke-width:1.0;"/><!--MD5=[38744a7ff9481b1720869fadf0c43d94]
link S_ExperimentC to S_ExperimentC_DB--><path d="M528.689,373.0861 C533.139,399.7841 540.619,444.6681 545.43,473.5341 " fill="none" id="S_ExperimentC-to-S_ExperimentC_DB" style="stroke:#A80036;stroke-width:1.0;"/><polygon fill="#A80036" points="546.296,478.7291,548.7602,469.1935,545.4731,473.7973,540.8693,470.5102,546.296,478.7291" style="stroke:#A80036;stroke-width:1.0;"/><!--MD5=[d5b21d23e7f96f2311566f5188465aa1]
link S_CRON to S_Postgres--><path d="M380.608,373.0861 C394.162,393.6226 414.8175,424.9191 432.3006,451.4088 C441.0422,464.6536 448.9907,476.6967 454.8618,485.5922 C455.5957,486.7041 456.2971,487.7669 456.9636,488.7766 " fill="none" id="S_CRON-to-S_Postgres" style="stroke:#A80036;stroke-width:1.0;"/><polygon fill="#A80036" points="456.9636,488.7766,455.3443,479.0618,454.2093,484.6036,448.6675,483.4686,456.9636,488.7766" style="stroke:#A80036;stroke-width:1.0;"/><!--MD5=[0896deb75accb899b32bca2b6740c235]
link P_ExperimentA to P_ExperimentA_DB--><path d="M1672.64,373.0861 C1658.82,400.0061 1635.51,445.4141 1620.71,474.2491 " fill="none" id="P_ExperimentA-to-P_ExperimentA_DB" style="stroke:#A80036;stroke-width:1.0;"/><polygon fill="#A80036" points="1618.41,478.7291,1626.073,472.5421,1620.6893,474.2789,1618.9526,468.8952,1618.41,478.7291" style="stroke:#A80036;stroke-width:1.0;"/><!--MD5=[649b149a14b92b4babd1d967373d73d6]
link P_ExperimentB to P_ExperimentB_DB--><path d="M1494.16,373.0861 C1489.54,399.7841 1481.76,444.6681 1476.75,473.5341 " fill="none" id="P_ExperimentB-to-P_ExperimentB_DB" style="stroke:#A80036;stroke-width:1.0;"/><polygon fill="#A80036" points="1475.85,478.7291,1481.3283,470.5445,1476.7039,473.8026,1473.4458,469.1782,1475.85,478.7291" style="stroke:#A80036;stroke-width:1.0;"/><!--MD5=[52576cb337e425175afa6c3ae8d3d85d]
link P_ExperimentC to P_ExperimentC_DB--><path d="M1315.69,373.0861 C1320.14,399.7841 1327.62,444.6681 1332.43,473.5341 " fill="none" id="P_ExperimentC-to-P_ExperimentC_DB" style="stroke:#A80036;stroke-width:1.0;"/><polygon fill="#A80036" points="1333.3,478.7291,1335.7633,469.1933,1332.4766,473.7974,1327.8725,470.5107,1333.3,478.7291" style="stroke:#A80036;stroke-width:1.0;"/><!--MD5=[367e2ce3183edd6b23add6ebea02d7ec]
link P_CRON to P_Postgres--><path d="M1167.61,373.0861 C1181.165,393.6226 1201.82,424.9191 1219.3025,451.4088 C1228.0437,464.6536 1235.9919,476.6967 1241.8628,485.5922 C1242.5967,486.7041 1243.2981,487.7669 1243.9645,488.7766 " fill="none" id="P_CRON-to-P_Postgres" style="stroke:#A80036;stroke-width:1.0;"/><polygon fill="#A80036" points="1243.9645,488.7766,1242.3454,479.0618,1241.2103,484.6036,1235.6685,483.4685,1243.9645,488.7766" style="stroke:#A80036;stroke-width:1.0;"/><!--MD5=[3a705f838a7e54c6a966c0a6af2a86b9]
link BuildServer to ElectronApps--><path d="M230.8623,158.5029 C230.6726,158.5888 230.4799,158.6761 230.2844,158.7649 C229.8934,158.9426 229.491,159.1262 229.0775,159.3157 C228.2505,159.6946 227.3793,160.0972 226.4666,160.5228 C219.1654,163.9281 209.2147,168.8129 198.088,174.949 C175.8345,187.2211 148.8765,204.4981 129,224.9531 C95.3998,259.5311 70.52,312.1381 60.2214,336.1711 " fill="none" id="BuildServer-to-ElectronApps" style="stroke:#A80036;stroke-width:1.0;"/><polygon fill="#A80036" points="58.2472,340.8491,65.4321,334.1128,60.1915,336.2426,58.0617,331.002,58.2472,340.8491" style="stroke:#A80036;stroke-width:1.0;"/><!--MD5=[99d0f2f2b81e726fb6d9737c556cf4f1]
link BuildServer to MobileApps--><path d="M230.9552,192.1124 C230.8459,192.6174 230.7358,193.126 230.6249,193.6379 C230.4032,194.6619 230.1786,195.6997 229.9511,196.7504 C229.4961,198.8519 229.03,201.0051 228.554,203.2035 C226.6502,211.9972 224.5901,221.5131 222.466,231.3243 C213.9697,270.5689 204.451,314.5371 199.827,335.8961 " fill="none" id="BuildServer-to-MobileApps" style="stroke:#A80036;stroke-width:1.0;"/><polygon fill="#A80036" points="198.751,340.8641,204.5656,332.9149,199.8095,335.9774,196.7469,331.2213,198.751,340.8641" style="stroke:#A80036;stroke-width:1.0;"/><!--MD5=[f0bebe43cf872da3ce97bdfb77545c13]
link BuildServer to Staging--><path d="M251.2244,201.2299 C251.2636,201.336 251.3029,201.4421 251.3423,201.5482 C251.4211,201.7603 251.5002,201.9723 251.5798,202.1842 C252.2164,203.8795 252.8783,205.5671 253.5658,207.2366 C254.9408,210.5756 256.4181,213.8423 258,216.9531 C260.015,220.9151 262.295,220.8491 264,224.9531 C266.6294,231.2809 268.8842,237.9288 270.8168,244.7224 C271.7832,248.1192 272.6689,251.5523 273.4807,255.0001 C273.5822,255.431 273.6825,255.8622 273.7817,256.2936 C273.8313,256.5093 273.8806,256.7251 273.9296,256.9408 " fill="none" id="BuildServer-to-Staging" style="stroke:#A80036;stroke-width:1.0;"/><polygon fill="#A80036" points="273.9296,256.9408,275.8366,247.2784,272.822,252.065,268.0353,249.0505,273.9296,256.9408" style="stroke:#A80036;stroke-width:1.0;"/><!--MD5=[2acaeb5e09c0bf6380ae3bbd896cf059]
link BuildServer to Production--><path d="M245.837,201.1982 C245.9283,201.3963 246.0207,201.5939 246.1142,201.7908 C246.3012,202.1846 246.4929,202.5758 246.6892,202.9643 C247.0819,203.7413 247.4934,204.5071 247.9246,205.2597 C248.787,206.765 249.7282,208.2176 250.755,209.6016 C252.8088,212.3695 255.2052,214.8628 258,216.9531 C274.261,229.1161 971.222,215.1391 989,224.9531 C1017.26,240.5531 1037.0825,270.8356 1049.9263,297.5685 C1053.1372,304.2517 1055.912,310.7131 1058.2733,316.6677 C1058.8637,318.1564 1059.4282,319.6134 1059.9672,321.0342 C1060.2367,321.7447 1060.4999,322.4461 1060.7567,323.1379 C1060.8209,323.3108 1060.8847,323.4832 1060.9481,323.655 " fill="none" id="BuildServer-to-Production" style="stroke:#A80036;stroke-width:1.0;"/><polygon fill="#A80036" points="1060.9481,323.655,1061.5831,313.8266,1059.2163,318.9645,1054.0784,316.5976,1060.9481,323.655" style="stroke:#A80036;stroke-width:1.0;"/><!--MD5=[0d69df325ffe8040a7b43f414f857867]
@startuml
title Overview of the Frinex build server when configured to deploy to separate tomcat servers for staging and production.

package "BuildServer" {
  GIT - [BuildProcess]
  [BuildProcess] - BuildListing
}

XML - -> GIT
JSON - -> GIT

package "Staging" {
  database "S_Postgres" {
    [S_ExperimentA_DB]
    [S_ExperimentB_DB]
    [S_ExperimentC_DB]
  }
  folder "S_Tomcat" {
    [S_ExperimentA] - -> S_ExperimentA_DB
    [S_ExperimentB] - -> S_ExperimentB_DB
    [S_ExperimentC] - -> S_ExperimentC_DB
  }
  [S_CRON] - -> S_Postgres 
}

package "Production" {
  database "P_Postgres" {
    [P_ExperimentA_DB]
    [P_ExperimentB_DB]
    [P_ExperimentC_DB]
  }
  folder "P_Tomcat" {
    [P_ExperimentA] - -> P_ExperimentA_DB
    [P_ExperimentB] - -> P_ExperimentB_DB
    [P_ExperimentC] - -> P_ExperimentC_DB
  }
  [P_CRON] - -> P_Postgres 
}

BuildServer - -> ElectronApps
BuildServer - -> MobileApps

BuildServer - -> Staging
BuildServer - -> Production
@enduml

PlantUML version 1.2021.8beta3(Unknown compile time)
(GPL source distribution)
Java Runtime: Java(TM) SE Runtime Environment
JVM: Java HotSpot(TM) 64-Bit Server VM
Default Encoding: UTF-8
Language: en
Country: US
--></g></svg>