<?xml version="1.0" encoding="UTF-8" standalone="no"?><svg xmlns="http://www.w3.org/2000/svg" xmlns:xlink="http://www.w3.org/1999/xlink" contentScriptType="application/ecmascript" contentStyleType="text/css" height="596px" preserveAspectRatio="none" style="width:1900px;height:596px;" version="1.1" viewBox="0 0 1900 596" width="1900px" zoomAndPan="magnify"><defs><filter height="300%" id="f1cy3tlto2iif9" width="300%" x="-1" y="-1"><feGaussianBlur result="blurOut" stdDeviation="2.0"/><feColorMatrix in="blurOut" result="blurOut2" type="matrix" values="0 0 0 0 0 0 0 0 0 0 0 0 0 0 0 0 0 0 .4 0"/><feOffset dx="4.0" dy="4.0" in="blurOut2" result="blurOut3"/><feBlend in="SourceGraphic" in2="blurOut3" mode="normal"/></filter></defs><g><text fill="#000000" font-family="sans-serif" font-size="18" lengthAdjust="spacing" textLength="1024" x="431.8458" y="17.4023">Overview of the Frinex build server when configured to deploy to separate tomcat servers for staging and production.</text><!--MD5=[6ef21aca39c11011116536f0bdb76d1e]
cluster BuildServer--><polygon fill="#FFFFFF" filter="url(#f1cy3tlto2iif9)" points="53.5,88.1992,140.5,88.1992,147.5,110.6875,352.5,110.6875,352.5,201.1992,53.5,201.1992,53.5,88.1992" style="stroke:#000000;stroke-width:1.5;"/><line style="stroke:#000000;stroke-width:1.5;" x1="53.5" x2="147.5" y1="110.6875" y2="110.6875"/><text fill="#000000" font-family="sans-serif" font-size="14" font-weight="bold" lengthAdjust="spacing" textLength="81" x="57.5" y="103.7344">BuildServer</text><!--MD5=[21d3bc2ca15d029df2435d856c261771]
cluster Staging--><polygon fill="#FFFFFF" filter="url(#f1cy3tlto2iif9)" points="272.5,241.1992,332.5,241.1992,339.5,263.6875,1003.5,263.6875,1003.5,589.1992,272.5,589.1992,272.5,241.1992" style="stroke:#000000;stroke-width:1.5;"/><line style="stroke:#000000;stroke-width:1.5;" x1="272.5" x2="339.5" y1="263.6875" y2="263.6875"/><text fill="#000000" font-family="sans-serif" font-size="14" font-weight="bold" lengthAdjust="spacing" textLength="54" x="276.5" y="256.7344">Staging</text><!--MD5=[a5b2bbcb43362595c29473893becfcce]
cluster S_Postgres--><path d="M320.5,431.1992 C320.5,421.1992 642,421.1992 642,421.1992 C642,421.1992 963.5,421.1992 963.5,431.1992 L963.5,539.1992 C963.5,549.1992 642,549.1992 642,549.1992 C642,549.1992 320.5,549.1992 320.5,539.1992 L320.5,431.1992 " fill="#FFFFFF" filter="url(#f1cy3tlto2iif9)" style="stroke:#000000;stroke-width:1.5;"/><path d="M320.5,431.1992 C320.5,441.1992 642,441.1992 642,441.1992 C642,441.1992 963.5,441.1992 963.5,431.1992 " fill="none" style="stroke:#000000;stroke-width:1.5;"/><text fill="#000000" font-family="sans-serif" font-size="14" font-weight="bold" lengthAdjust="spacing" textLength="78" x="603" y="456.7344">S_Postgres</text><!--MD5=[5ee479c350b404bc2fbbd00b78662128]
cluster S_Tomcat--><polygon fill="#FFFFFF" filter="url(#f1cy3tlto2iif9)" points="430.5,292.1992,505.5,292.1992,512.5,314.6875,962.5,314.6875,962.5,389.1992,430.5,389.1992,430.5,292.1992" style="stroke:#000000;stroke-width:1.5;"/><line style="stroke:#000000;stroke-width:1.5;" x1="430.5" x2="512.5" y1="314.6875" y2="314.6875"/><text fill="#000000" font-family="sans-serif" font-size="14" font-weight="bold" lengthAdjust="spacing" textLength="69" x="434.5" y="307.7344">S_Tomcat</text><!--MD5=[70c5155dc2d6bfca20cea34af46dc1c3]
cluster Production--><polygon fill="#FFFFFF" filter="url(#f1cy3tlto2iif9)" points="1064.5,241.1992,1148.5,241.1992,1155.5,263.6875,1795.5,263.6875,1795.5,589.1992,1064.5,589.1992,1064.5,241.1992" style="stroke:#000000;stroke-width:1.5;"/><line style="stroke:#000000;stroke-width:1.5;" x1="1064.5" x2="1155.5" y1="263.6875" y2="263.6875"/><text fill="#000000" font-family="sans-serif" font-size="14" font-weight="bold" lengthAdjust="spacing" textLength="78" x="1068.5" y="256.7344">Production</text><!--MD5=[a498d3f8770df7c2628f8489445be243]
cluster P_Postgres--><path d="M1112.5,431.1992 C1112.5,421.1992 1434,421.1992 1434,421.1992 C1434,421.1992 1755.5,421.1992 1755.5,431.1992 L1755.5,539.1992 C1755.5,549.1992 1434,549.1992 1434,549.1992 C1434,549.1992 1112.5,549.1992 1112.5,539.1992 L1112.5,431.1992 " fill="#FFFFFF" filter="url(#f1cy3tlto2iif9)" style="stroke:#000000;stroke-width:1.5;"/><path d="M1112.5,431.1992 C1112.5,441.1992 1434,441.1992 1434,441.1992 C1434,441.1992 1755.5,441.1992 1755.5,431.1992 " fill="none" style="stroke:#000000;stroke-width:1.5;"/><text fill="#000000" font-family="sans-serif" font-size="14" font-weight="bold" lengthAdjust="spacing" textLength="79" x="1394.5" y="456.7344">P_Postgres</text><!--MD5=[bc722b1a1f6cb95a0f3f5c3c4b34d3d8]
cluster P_Tomcat--><polygon fill="#FFFFFF" filter="url(#f1cy3tlto2iif9)" points="1222.5,292.1992,1298.5,292.1992,1305.5,314.6875,1754.5,314.6875,1754.5,389.1992,1222.5,389.1992,1222.5,292.1992" style="stroke:#000000;stroke-width:1.5;"/><line style="stroke:#000000;stroke-width:1.5;" x1="1222.5" x2="1305.5" y1="314.6875" y2="314.6875"/><text fill="#000000" font-family="sans-serif" font-size="14" font-weight="bold" lengthAdjust="spacing" textLength="70" x="1226.5" y="307.7344">P_Tomcat</text><!--MD5=[691bb86bf8426993c6d44a6a97197240]
cluster WebAccess--><path d="M407.9163,103.6259 C441.556,63.6983 484.3502,69.2846 508.7553,114.5558 C534.0321,65.4626 585.3569,63.6697 611.9677,113.1591 C643.9474,61.3288 681.3008,60.6683 717.6789,108.4934 C744.0839,61.3057 793.6032,42.5291 828.5383,99.4062 C863.2975,47.9622 896.803,53.4049 929.0721,101.9108 C967.0062,41.7474 1006.0674,47.0635 1041.7016,104.1207 C1068.9605,56.8395 1113.798,52.389 1147.1592,97.1272 C1178.0844,53.4547 1218.9736,50.1235 1246.8055,100.4079 C1280.4067,50.0325 1330.8505,52.3183 1356.2468,108.8104 C1386.9297,56.5205 1424.652,59.5854 1453.5232,110.5177 C1474.6796,60.8354 1524.5478,57.6155 1555.0058,100.2979 C1584.5799,50.3788 1633.4227,52.7354 1661.4756,101.932 C1688.2898,39.985 1741.3911,54.5074 1772.1814,97.7471 C1803.3118,55.249 1850.8915,57.2766 1875.5,105.1992 C1877.235,104.2469 1878.4316,105.138 1878.4345,107.0032 C1889.5865,110.5338 1890.4051,119.9874 1883.1115,127.6885 C1893.6915,132.7635 1892.2905,139.7106 1885.3592,146.8408 C1892.9413,154.24 1891.7459,164.2094 1881.3497,168.2401 C1890.0642,182.0949 1881.8823,189.7114 1868.5,191.1992 C1871.4728,188.7771 1873.6948,190.2897 1874.4898,193.5108 C1854.0725,235.7913 1811.6971,250.4433 1778.9535,207.2954 C1747.6876,249.5936 1701.7908,259.4647 1674.8592,202.739 C1646.7042,243.9628 1594.9425,244.2917 1569.6804,199.2134 C1541.8167,243.7566 1490.5179,256.6409 1462.2442,199.6473 C1429.9746,260.3609 1390.5964,262.7422 1351.2072,206.4009 C1321.5382,256.9474 1277.6827,252.7502 1249.8211,204.5452 C1227.1016,249.6394 1178.356,253.1026 1151.9902,208.5232 C1122.7177,257.7593 1075.0672,255.2585 1044.9462,209.4791 C1008.3657,258.3013 963.183,257.6952 936.0929,199.7989 C912.9131,257.5608 855.7616,261.3589 821.3962,211.7474 C794.638,259.5847 754.75,248.1619 729.986,209.6366 C699.6858,264.308 650.505,255.9005 624.8943,204.9698 C589.7276,266.4969 540.2944,264.8904 509.2144,201.1946 C470.0751,254.1004 414.0751,251.9139 392.5,184.1992 C393.513,183.1708 394.6982,183.5988 395.0873,184.8939 C385.7146,181.3227 383.034,173.219 391.4917,166.2155 C379.4531,162.1976 379.5613,154.6779 387.1754,146.3829 C380.588,138.4726 381.7644,130.4403 392.2162,126.9499 C382.1475,115.9237 384.6709,102.9177 399.5,98.1992 C404.9399,95.5018 407.6617,98.2814 407.9163,103.6259 " fill="#FFFFFF" filter="url(#f1cy3tlto2iif9)" style="stroke:#000000;stroke-width:1.5;"/><text fill="#000000" font-family="sans-serif" font-size="14" font-weight="bold" lengthAdjust="spacing" textLength="78" x="1095" y="116.7344">WebAccess</text><!--MD5=[8508ee80f51d2ab8da2f58bb9291871b]
entity GIT--><ellipse cx="105.5" cy="154.1992" fill="#FEFECE" filter="url(#f1cy3tlto2iif9)" rx="8" ry="8" style="stroke:#A80036;stroke-width:1.5;"/><text fill="#000000" font-family="sans-serif" font-size="14" lengthAdjust="spacing" textLength="23" x="94" y="184.7344">GIT</text><!--MD5=[c212259dc7d3920de60008eab0b8d272]
entity BuildProcess--><rect fill="#FEFECE" filter="url(#f1cy3tlto2iif9)" height="46.4883" style="stroke:#A80036;stroke-width:1.5;" width="126" x="149.5" y="131.1992"/><rect fill="#FEFECE" height="10" style="stroke:#A80036;stroke-width:1.5;" width="15" x="255.5" y="136.1992"/><rect fill="#FEFECE" height="2" style="stroke:#A80036;stroke-width:1.5;" width="4" x="253.5" y="138.1992"/><rect fill="#FEFECE" height="2" style="stroke:#A80036;stroke-width:1.5;" width="4" x="253.5" y="142.1992"/><text fill="#000000" font-family="sans-serif" font-size="14" lengthAdjust="spacing" textLength="86" x="164.5" y="164.7344">BuildProcess</text><!--MD5=[67cf98da98c31b99946e7c07ba74794c]
entity BuildListing--><ellipse cx="319.5" cy="154.1992" fill="#FEFECE" filter="url(#f1cy3tlto2iif9)" rx="8" ry="8" style="stroke:#A80036;stroke-width:1.5;"/><text fill="#000000" font-family="sans-serif" font-size="14" lengthAdjust="spacing" textLength="79" x="280" y="184.7344">BuildListing</text><!--MD5=[fc6f67bee88772bea413f15dee7f1380]
entity S_CRON--><rect fill="#FEFECE" filter="url(#f1cy3tlto2iif9)" height="46.4883" style="stroke:#A80036;stroke-width:1.5;" width="95" x="316" y="327.1992"/><rect fill="#FEFECE" height="10" style="stroke:#A80036;stroke-width:1.5;" width="15" x="391" y="332.1992"/><rect fill="#FEFECE" height="2" style="stroke:#A80036;stroke-width:1.5;" width="4" x="389" y="334.1992"/><rect fill="#FEFECE" height="2" style="stroke:#A80036;stroke-width:1.5;" width="4" x="389" y="338.1992"/><text fill="#000000" font-family="sans-serif" font-size="14" lengthAdjust="spacing" textLength="55" x="331" y="360.7344">S_CRON</text><!--MD5=[bf3e93f7da3ea38534b9cc475762a949]
entity S_ExperimentA_DB--><rect fill="#FEFECE" filter="url(#f1cy3tlto2iif9)" height="46.4883" style="stroke:#A80036;stroke-width:1.5;" width="169" x="770" y="479.1992"/><rect fill="#FEFECE" height="10" style="stroke:#A80036;stroke-width:1.5;" width="15" x="919" y="484.1992"/><rect fill="#FEFECE" height="2" style="stroke:#A80036;stroke-width:1.5;" width="4" x="917" y="486.1992"/><rect fill="#FEFECE" height="2" style="stroke:#A80036;stroke-width:1.5;" width="4" x="917" y="490.1992"/><text fill="#000000" font-family="sans-serif" font-size="14" lengthAdjust="spacing" textLength="129" x="785" y="512.7344">S_ExperimentA_DB</text><!--MD5=[4574e1ad97ce8d8b9d12a45312b37336]
entity S_ExperimentB_DB--><rect fill="#FEFECE" filter="url(#f1cy3tlto2iif9)" height="46.4883" style="stroke:#A80036;stroke-width:1.5;" width="167" x="568" y="479.1992"/><rect fill="#FEFECE" height="10" style="stroke:#A80036;stroke-width:1.5;" width="15" x="715" y="484.1992"/><rect fill="#FEFECE" height="2" style="stroke:#A80036;stroke-width:1.5;" width="4" x="713" y="486.1992"/><rect fill="#FEFECE" height="2" style="stroke:#A80036;stroke-width:1.5;" width="4" x="713" y="490.1992"/><text fill="#000000" font-family="sans-serif" font-size="14" lengthAdjust="spacing" textLength="127" x="583" y="512.7344">S_ExperimentB_DB</text><!--MD5=[5c48c04b509073ef05bedd5eb7b7f02d]
entity S_ExperimentC_DB--><rect fill="#FEFECE" filter="url(#f1cy3tlto2iif9)" height="46.4883" style="stroke:#A80036;stroke-width:1.5;" width="169" x="364" y="479.1992"/><rect fill="#FEFECE" height="10" style="stroke:#A80036;stroke-width:1.5;" width="15" x="513" y="484.1992"/><rect fill="#FEFECE" height="2" style="stroke:#A80036;stroke-width:1.5;" width="4" x="511" y="486.1992"/><rect fill="#FEFECE" height="2" style="stroke:#A80036;stroke-width:1.5;" width="4" x="511" y="490.1992"/><text fill="#000000" font-family="sans-serif" font-size="14" lengthAdjust="spacing" textLength="129" x="379" y="512.7344">S_ExperimentC_DB</text><!--MD5=[d8bf7a8e7c7005f2652f605a8428cb7b]
entity S_ExperimentA--><rect fill="#FEFECE" filter="url(#f1cy3tlto2iif9)" height="46.4883" style="stroke:#A80036;stroke-width:1.5;" width="144" x="802.5" y="327.1992"/><rect fill="#FEFECE" height="10" style="stroke:#A80036;stroke-width:1.5;" width="15" x="926.5" y="332.1992"/><rect fill="#FEFECE" height="2" style="stroke:#A80036;stroke-width:1.5;" width="4" x="924.5" y="334.1992"/><rect fill="#FEFECE" height="2" style="stroke:#A80036;stroke-width:1.5;" width="4" x="924.5" y="338.1992"/><text fill="#000000" font-family="sans-serif" font-size="14" lengthAdjust="spacing" textLength="104" x="817.5" y="360.7344">S_ExperimentA</text><!--MD5=[81ff189cffa96326430b1a29d9d21da4]
entity S_ExperimentB--><rect fill="#FEFECE" filter="url(#f1cy3tlto2iif9)" height="46.4883" style="stroke:#A80036;stroke-width:1.5;" width="142" x="625.5" y="327.1992"/><rect fill="#FEFECE" height="10" style="stroke:#A80036;stroke-width:1.5;" width="15" x="747.5" y="332.1992"/><rect fill="#FEFECE" height="2" style="stroke:#A80036;stroke-width:1.5;" width="4" x="745.5" y="334.1992"/><rect fill="#FEFECE" height="2" style="stroke:#A80036;stroke-width:1.5;" width="4" x="745.5" y="338.1992"/><text fill="#000000" font-family="sans-serif" font-size="14" lengthAdjust="spacing" textLength="102" x="640.5" y="360.7344">S_ExperimentB</text><!--MD5=[355fcf14be9fd1673e96e4c9e15992be]
entity S_ExperimentC--><rect fill="#FEFECE" filter="url(#f1cy3tlto2iif9)" height="46.4883" style="stroke:#A80036;stroke-width:1.5;" width="144" x="446.5" y="327.1992"/><rect fill="#FEFECE" height="10" style="stroke:#A80036;stroke-width:1.5;" width="15" x="570.5" y="332.1992"/><rect fill="#FEFECE" height="2" style="stroke:#A80036;stroke-width:1.5;" width="4" x="568.5" y="334.1992"/><rect fill="#FEFECE" height="2" style="stroke:#A80036;stroke-width:1.5;" width="4" x="568.5" y="338.1992"/><text fill="#000000" font-family="sans-serif" font-size="14" lengthAdjust="spacing" textLength="104" x="461.5" y="360.7344">S_ExperimentC</text><!--MD5=[2eeec1a2e19cf2b954e551c6d66b5ad0]
entity P_CRON--><rect fill="#FEFECE" filter="url(#f1cy3tlto2iif9)" height="46.4883" style="stroke:#A80036;stroke-width:1.5;" width="95" x="1108" y="327.1992"/><rect fill="#FEFECE" height="10" style="stroke:#A80036;stroke-width:1.5;" width="15" x="1183" y="332.1992"/><rect fill="#FEFECE" height="2" style="stroke:#A80036;stroke-width:1.5;" width="4" x="1181" y="334.1992"/><rect fill="#FEFECE" height="2" style="stroke:#A80036;stroke-width:1.5;" width="4" x="1181" y="338.1992"/><text fill="#000000" font-family="sans-serif" font-size="14" lengthAdjust="spacing" textLength="55" x="1123" y="360.7344">P_CRON</text><!--MD5=[33634f75733db6830fa81a0936e3b9af]
entity P_ExperimentA_DB--><rect fill="#FEFECE" filter="url(#f1cy3tlto2iif9)" height="46.4883" style="stroke:#A80036;stroke-width:1.5;" width="169" x="1562" y="479.1992"/><rect fill="#FEFECE" height="10" style="stroke:#A80036;stroke-width:1.5;" width="15" x="1711" y="484.1992"/><rect fill="#FEFECE" height="2" style="stroke:#A80036;stroke-width:1.5;" width="4" x="1709" y="486.1992"/><rect fill="#FEFECE" height="2" style="stroke:#A80036;stroke-width:1.5;" width="4" x="1709" y="490.1992"/><text fill="#000000" font-family="sans-serif" font-size="14" lengthAdjust="spacing" textLength="129" x="1577" y="512.7344">P_ExperimentA_DB</text><!--MD5=[212d91fbe198c9d2ee07bcef1f93e124]
entity P_ExperimentB_DB--><rect fill="#FEFECE" filter="url(#f1cy3tlto2iif9)" height="46.4883" style="stroke:#A80036;stroke-width:1.5;" width="167" x="1360" y="479.1992"/><rect fill="#FEFECE" height="10" style="stroke:#A80036;stroke-width:1.5;" width="15" x="1507" y="484.1992"/><rect fill="#FEFECE" height="2" style="stroke:#A80036;stroke-width:1.5;" width="4" x="1505" y="486.1992"/><rect fill="#FEFECE" height="2" style="stroke:#A80036;stroke-width:1.5;" width="4" x="1505" y="490.1992"/><text fill="#000000" font-family="sans-serif" font-size="14" lengthAdjust="spacing" textLength="127" x="1375" y="512.7344">P_ExperimentB_DB</text><!--MD5=[3cf3ed248faa6d8a8b021b7d17fd9d1c]
entity P_ExperimentC_DB--><rect fill="#FEFECE" filter="url(#f1cy3tlto2iif9)" height="46.4883" style="stroke:#A80036;stroke-width:1.5;" width="169" x="1156" y="479.1992"/><rect fill="#FEFECE" height="10" style="stroke:#A80036;stroke-width:1.5;" width="15" x="1305" y="484.1992"/><rect fill="#FEFECE" height="2" style="stroke:#A80036;stroke-width:1.5;" width="4" x="1303" y="486.1992"/><rect fill="#FEFECE" height="2" style="stroke:#A80036;stroke-width:1.5;" width="4" x="1303" y="490.1992"/><text fill="#000000" font-family="sans-serif" font-size="14" lengthAdjust="spacing" textLength="129" x="1171" y="512.7344">P_ExperimentC_DB</text><!--MD5=[61d1d0242e477103fe670b87068ea79a]
entity P_ExperimentA--><rect fill="#FEFECE" filter="url(#f1cy3tlto2iif9)" height="46.4883" style="stroke:#A80036;stroke-width:1.5;" width="144" x="1594.5" y="327.1992"/><rect fill="#FEFECE" height="10" style="stroke:#A80036;stroke-width:1.5;" width="15" x="1718.5" y="332.1992"/><rect fill="#FEFECE" height="2" style="stroke:#A80036;stroke-width:1.5;" width="4" x="1716.5" y="334.1992"/><rect fill="#FEFECE" height="2" style="stroke:#A80036;stroke-width:1.5;" width="4" x="1716.5" y="338.1992"/><text fill="#000000" font-family="sans-serif" font-size="14" lengthAdjust="spacing" textLength="104" x="1609.5" y="360.7344">P_ExperimentA</text><!--MD5=[89014eeb61fb904eac47c219b62341cb]
entity P_ExperimentB--><rect fill="#FEFECE" filter="url(#f1cy3tlto2iif9)" height="46.4883" style="stroke:#A80036;stroke-width:1.5;" width="142" x="1417.5" y="327.1992"/><rect fill="#FEFECE" height="10" style="stroke:#A80036;stroke-width:1.5;" width="15" x="1539.5" y="332.1992"/><rect fill="#FEFECE" height="2" style="stroke:#A80036;stroke-width:1.5;" width="4" x="1537.5" y="334.1992"/><rect fill="#FEFECE" height="2" style="stroke:#A80036;stroke-width:1.5;" width="4" x="1537.5" y="338.1992"/><text fill="#000000" font-family="sans-serif" font-size="14" lengthAdjust="spacing" textLength="102" x="1432.5" y="360.7344">P_ExperimentB</text><!--MD5=[1ff87fa9dfb71cb5b869e7e8bde5dc0e]
entity P_ExperimentC--><rect fill="#FEFECE" filter="url(#f1cy3tlto2iif9)" height="46.4883" style="stroke:#A80036;stroke-width:1.5;" width="144" x="1238.5" y="327.1992"/><rect fill="#FEFECE" height="10" style="stroke:#A80036;stroke-width:1.5;" width="15" x="1362.5" y="332.1992"/><rect fill="#FEFECE" height="2" style="stroke:#A80036;stroke-width:1.5;" width="4" x="1360.5" y="334.1992"/><rect fill="#FEFECE" height="2" style="stroke:#A80036;stroke-width:1.5;" width="4" x="1360.5" y="338.1992"/><text fill="#000000" font-family="sans-serif" font-size="14" lengthAdjust="spacing" textLength="104" x="1253.5" y="360.7344">P_ExperimentC</text><!--MD5=[30ff67a8d80ade508e6e9d7e356380a3]
entity http_host_80_S_ExperimentA--><ellipse cx="1008.5" cy="154.1992" fill="#FEFECE" filter="url(#f1cy3tlto2iif9)" rx="8" ry="8" style="stroke:#A80036;stroke-width:1.5;"/><text fill="#000000" font-family="sans-serif" font-size="14" lengthAdjust="spacing" textLength="201" x="908" y="184.7344">http_host_80_S_ExperimentA</text><!--MD5=[81644fe91f298bb7821aeaeccef35f71]
entity http_host_80_S_ExperimentB--><ellipse cx="758.5" cy="154.1992" fill="#FEFECE" filter="url(#f1cy3tlto2iif9)" rx="8" ry="8" style="stroke:#A80036;stroke-width:1.5;"/><text fill="#000000" font-family="sans-serif" font-size="14" lengthAdjust="spacing" textLength="199" x="659" y="184.7344">http_host_80_S_ExperimentB</text><!--MD5=[02e746b548b4b68f2580eb2d0d18f526]
entity http_host_80_S_ExperimentC--><ellipse cx="508.5" cy="154.1992" fill="#FEFECE" filter="url(#f1cy3tlto2iif9)" rx="8" ry="8" style="stroke:#A80036;stroke-width:1.5;"/><text fill="#000000" font-family="sans-serif" font-size="14" lengthAdjust="spacing" textLength="201" x="408" y="184.7344">http_host_80_S_ExperimentC</text><!--MD5=[5af7d77e86d027d8093ee3cdb733e7cd]
entity http_host_80_P_ExperimentA--><ellipse cx="1759.5" cy="154.1992" fill="#FEFECE" filter="url(#f1cy3tlto2iif9)" rx="8" ry="8" style="stroke:#A80036;stroke-width:1.5;"/><text fill="#000000" font-family="sans-serif" font-size="14" lengthAdjust="spacing" textLength="201" x="1659" y="184.7344">http_host_80_P_ExperimentA</text><!--MD5=[19874509d003301deec78faae385142f]
entity http_host_80_P_ExperimentB--><ellipse cx="1509.5" cy="154.1992" fill="#FEFECE" filter="url(#f1cy3tlto2iif9)" rx="8" ry="8" style="stroke:#A80036;stroke-width:1.5;"/><text fill="#000000" font-family="sans-serif" font-size="14" lengthAdjust="spacing" textLength="199" x="1410" y="184.7344">http_host_80_P_ExperimentB</text><!--MD5=[274a55a2e929cfe0e229a6ef2537d923]
entity http_host_80_P_ExperimentC--><ellipse cx="1259.5" cy="154.1992" fill="#FEFECE" filter="url(#f1cy3tlto2iif9)" rx="8" ry="8" style="stroke:#A80036;stroke-width:1.5;"/><text fill="#000000" font-family="sans-serif" font-size="14" lengthAdjust="spacing" textLength="201" x="1159" y="184.7344">http_host_80_P_ExperimentC</text><!--MD5=[8542d3c4667b51f1062a6130d5d31d3f]
entity XML--><ellipse cx="61.5" cy="35.1992" fill="#FEFECE" filter="url(#f1cy3tlto2iif9)" rx="8" ry="8" style="stroke:#A80036;stroke-width:1.5;"/><text fill="#000000" font-family="sans-serif" font-size="14" lengthAdjust="spacing" textLength="28" x="47.5" y="65.7344">XML</text><!--MD5=[c470d76c68afda2f5e9525cd4f85a320]
entity JSON--><ellipse cx="150.5" cy="35.1992" fill="#FEFECE" filter="url(#f1cy3tlto2iif9)" rx="8" ry="8" style="stroke:#A80036;stroke-width:1.5;"/><text fill="#000000" font-family="sans-serif" font-size="14" lengthAdjust="spacing" textLength="33" x="134" y="65.7344">JSON</text><!--MD5=[49f01e80b9b7ed5ac4c62e42b9014098]
entity ElectronApps--><ellipse cx="51.5" cy="350.1992" fill="#FEFECE" filter="url(#f1cy3tlto2iif9)" rx="8" ry="8" style="stroke:#A80036;stroke-width:1.5;"/><text fill="#000000" font-family="sans-serif" font-size="14" lengthAdjust="spacing" textLength="91" x="6" y="380.7344">ElectronApps</text><!--MD5=[907df72fbbecbad018b0540ed2bffab7]
entity MobileApps--><ellipse cx="187.5" cy="350.1992" fill="#FEFECE" filter="url(#f1cy3tlto2iif9)" rx="8" ry="8" style="stroke:#A80036;stroke-width:1.5;"/><text fill="#000000" font-family="sans-serif" font-size="14" lengthAdjust="spacing" textLength="81" x="147" y="380.7344">MobileApps</text><!--MD5=[559999df657540dbf8f2170dae676317]
link GIT to BuildProcess--><path d="M114.7,154.1992 C126.28,154.1992 137.87,154.1992 149.46,154.1992 " fill="none" id="GIT-BuildProcess" style="stroke:#A80036;stroke-width:1.0;"/><!--MD5=[e09825669451c5bf93a65731050d2015]
link BuildProcess to BuildListing--><path d="M275.61,154.1992 C287.16,154.1992 298.7,154.1992 310.24,154.1992 " fill="none" id="BuildProcess-BuildListing" style="stroke:#A80036;stroke-width:1.0;"/><!--MD5=[473a9bd311ff378df3b944c922087996]
link XML to GIT--><path d="M70.65,44.0992 C77.8,50.8292 87.36,61.1292 92.5,72.1992 C102.85,94.4792 105.16,123.5092 105.56,140.0792 " fill="none" id="XML-to-GIT" style="stroke:#A80036;stroke-width:1.0;"/><polygon fill="#A80036" points="105.63,145.1892,109.501,136.133,105.5586,140.1897,101.5018,136.2473,105.63,145.1892" style="stroke:#A80036;stroke-width:1.0;"/><!--MD5=[3d715daef7e68d317b0486f27a994155]
link JSON to GIT--><path d="M146.01,44.3392 C142.15,51.5392 136.56,62.3892 132.5,72.1992 C122.82,95.5792 114.04,123.7892 109.27,139.9992 " fill="none" id="JSON-to-GIT" style="stroke:#A80036;stroke-width:1.0;"/><polygon fill="#A80036" points="107.81,145.0092,114.17,137.4892,109.21,140.2092,106.49,135.2492,107.81,145.0092" style="stroke:#A80036;stroke-width:1.0;"/><!--MD5=[3937dfa24e11228857af0b6984f4aa5c]
link S_ExperimentA to S_ExperimentA_DB--><path d="M871.55,373.3292 C867.99,400.0292 862,444.9092 858.16,473.7792 " fill="none" id="S_ExperimentA-to-S_ExperimentA_DB" style="stroke:#A80036;stroke-width:1.0;"/><polygon fill="#A80036" points="857.46,478.9792,862.608,470.5829,858.1171,474.0226,854.6774,469.5316,857.46,478.9792" style="stroke:#A80036;stroke-width:1.0;"/><!--MD5=[5ee92aa58f707b1bc89ed40a7a215464]
link S_ExperimentB to S_ExperimentB_DB--><path d="M689.86,373.3292 C681.82,400.1392 668.27,445.2892 659.62,474.1392 " fill="none" id="S_ExperimentB-to-S_ExperimentB_DB" style="stroke:#A80036;stroke-width:1.0;"/><polygon fill="#A80036" points="658.17,478.9792,664.5977,471.517,659.6133,474.1921,656.9382,469.2077,658.17,478.9792" style="stroke:#A80036;stroke-width:1.0;"/><!--MD5=[b058616d34660fc7cd58b549e4461eb8]
link S_ExperimentC to S_ExperimentC_DB--><path d="M508.17,373.3292 C495.66,400.1392 474.59,445.2892 461.13,474.1392 " fill="none" id="S_ExperimentC-to-S_ExperimentC_DB" style="stroke:#A80036;stroke-width:1.0;"/><polygon fill="#A80036" points="458.87,478.9792,466.3018,472.5164,460.9852,474.4487,459.0529,469.1321,458.87,478.9792" style="stroke:#A80036;stroke-width:1.0;"/><!--MD5=[d5b21d23e7f96f2311566f5188465aa1]
link S_CRON to S_Postgres--><path d="M356.42,373.4092 C353.45,383.1092 350.1,394.6592 347.5,405.1992 C346.2388,410.313 345.0044,415.5959 343.8088,420.9321 " fill="none" id="S_CRON-to-S_Postgres" style="stroke:#A80036;stroke-width:1.0;"/><polygon fill="#A80036" points="343.8088,420.9321,349.6797,413.0243,344.902,416.0531,341.8732,411.2754,343.8088,420.9321" style="stroke:#A80036;stroke-width:1.0;"/><!--MD5=[b8539f58fafbf893ac557073f4387449]
link P_ExperimentA to P_ExperimentA_DB--><path d="M1663.55,373.3292 C1659.99,400.0292 1654,444.9092 1650.16,473.7792 " fill="none" id="P_ExperimentA-to-P_ExperimentA_DB" style="stroke:#A80036;stroke-width:1.0;"/><polygon fill="#A80036" points="1649.46,478.9792,1654.608,470.5829,1650.1171,474.0226,1646.6774,469.5316,1649.46,478.9792" style="stroke:#A80036;stroke-width:1.0;"/><!--MD5=[9e429023ae7f08ab34e5f2582f61098b]
link P_ExperimentB to P_ExperimentB_DB--><path d="M1481.86,373.3292 C1473.82,400.1392 1460.27,445.2892 1451.62,474.1392 " fill="none" id="P_ExperimentB-to-P_ExperimentB_DB" style="stroke:#A80036;stroke-width:1.0;"/><polygon fill="#A80036" points="1450.17,478.9792,1456.5977,471.517,1451.6133,474.1921,1448.9382,469.2077,1450.17,478.9792" style="stroke:#A80036;stroke-width:1.0;"/><!--MD5=[36242f42d567f80a0d9d0d413198aac3]
link P_ExperimentC to P_ExperimentC_DB--><path d="M1300.17,373.3292 C1287.66,400.1392 1266.59,445.2892 1253.13,474.1392 " fill="none" id="P_ExperimentC-to-P_ExperimentC_DB" style="stroke:#A80036;stroke-width:1.0;"/><polygon fill="#A80036" points="1250.87,478.9792,1258.3018,472.5164,1252.9852,474.4487,1251.0529,469.1321,1250.87,478.9792" style="stroke:#A80036;stroke-width:1.0;"/><!--MD5=[367e2ce3183edd6b23add6ebea02d7ec]
link P_CRON to P_Postgres--><path d="M1148.42,373.4092 C1145.45,383.1092 1142.1,394.6592 1139.5,405.1992 C1138.2388,410.313 1137.0044,415.5959 1135.8088,420.9321 " fill="none" id="P_CRON-to-P_Postgres" style="stroke:#A80036;stroke-width:1.0;"/><polygon fill="#A80036" points="1135.8088,420.9321,1141.6797,413.0243,1136.902,416.0531,1133.8732,411.2754,1135.8088,420.9321" style="stroke:#A80036;stroke-width:1.0;"/><!--MD5=[3a705f838a7e54c6a966c0a6af2a86b9]
link BuildServer to ElectronApps--><path d="M59.1046,201.6522 C59.0766,202.1944 59.0485,202.7395 59.0203,203.2874 C58.5684,212.0542 58.0794,221.543 57.575,231.3292 C55.5575,270.4742 53.295,314.3792 52.19,335.8792 " fill="none" id="BuildServer-to-ElectronApps" style="stroke:#A80036;stroke-width:1.0;"/><polygon fill="#A80036" points="51.92,341.1092,56.3783,332.3272,52.1775,336.1159,48.3889,331.9151,51.92,341.1092" style="stroke:#A80036;stroke-width:1.0;"/><!--MD5=[99d0f2f2b81e726fb6d9737c556cf4f1]
link BuildServer to MobileApps--><path d="M69.2728,201.2316 C69.4538,201.6328 69.6389,202.0321 69.8282,202.4291 C70.2069,203.2233 70.6023,204.0087 71.0153,204.7837 C71.8412,206.3336 72.7372,207.8414 73.7092,209.2924 C75.6533,212.1944 77.9013,214.8692 80.5,217.1992 C94.65,229.8792 107.24,213.8792 122.5,225.1992 C160.41,253.3192 178.21,310.1292 184.59,335.9192 " fill="none" id="BuildServer-to-MobileApps" style="stroke:#A80036;stroke-width:1.0;"/><polygon fill="#A80036" points="185.78,340.9292,187.5918,331.2484,184.6245,336.0646,179.8083,333.0973,185.78,340.9292" style="stroke:#A80036;stroke-width:1.0;"/><!--MD5=[f0bebe43cf872da3ce97bdfb77545c13]
link BuildServer to Staging--><path d="M68.4638,201.279 C68.5545,201.4778 68.6463,201.6761 68.7393,201.8737 C68.9252,202.269 69.1156,202.6619 69.3106,203.0522 C69.7006,203.8326 70.1091,204.6024 70.5368,205.3596 C71.3923,206.874 72.3249,208.3378 73.3413,209.7354 C75.3742,212.5305 77.7425,215.0605 80.5,217.1992 C95.7,228.9992 238.8,212.7792 253.5,225.1992 C258.8025,229.6767 263.2089,234.9297 266.8595,240.6995 C268.6847,243.5844 270.321,246.5985 271.7859,249.7096 C271.969,250.0984 272.1494,250.4888 272.3272,250.8807 " fill="none" id="BuildServer-to-Staging" style="stroke:#A80036;stroke-width:1.0;"/><polygon fill="#A80036" points="272.3272,250.8807,272.2512,241.0321,270.2613,246.3274,264.966,244.3375,272.3272,250.8807" style="stroke:#A80036;stroke-width:1.0;"/><!--MD5=[2acaeb5e09c0bf6380ae3bbd896cf059]
link BuildServer to Production--><path d="M68.3318,201.454 C68.423,201.6521 68.5154,201.8496 68.609,202.0465 C68.7961,202.4402 68.9878,202.8314 69.1842,203.2198 C69.577,203.9965 69.9886,204.7621 70.42,205.5144 C71.2827,207.0192 72.2242,208.4711 73.2515,209.8543 C75.3061,212.6206 77.7038,215.1117 80.5,217.1992 C100.13,231.8592 940.2,215.0492 962.5,225.1992 C995.5,240.2192 1022.6625,270.4917 1041.74,297.3642 C1051.2788,310.8005 1058.7962,323.3867 1064.0116,332.7914 C1064.1745,333.0853 1064.3353,333.3761 1064.4937,333.6637 " fill="none" id="BuildServer-to-Production" style="stroke:#A80036;stroke-width:1.0;"/><polygon fill="#A80036" points="1064.4937,333.6637,1063.6538,323.8507,1062.0808,329.2845,1056.647,327.7114,1064.4937,333.6637" style="stroke:#A80036;stroke-width:1.0;"/><!--MD5=[bbad0421de7949176679a51e900ab7e2]
link http_host_80_S_ExperimentA to S_ExperimentA--><path d="M1002.74,163.5392 C983.86,190.8692 923.3,278.5392 892.64,322.9292 " fill="none" id="http_host_80_S_ExperimentA-to-S_ExperimentA" style="stroke:#A80036;stroke-width:1.0;"/><polygon fill="#A80036" points="889.77,327.0892,898.177,321.9587,892.6123,322.9757,891.5954,317.411,889.77,327.0892" style="stroke:#A80036;stroke-width:1.0;"/><!--MD5=[7ae90ecb8bfd3992fdb4e00d6bafb7c5]
link http_host_80_S_ExperimentB to S_ExperimentB--><path d="M755.84,163.5392 C747.15,190.6992 719.42,277.4892 705.15,322.1192 " fill="none" id="http_host_80_S_ExperimentB-to-S_ExperimentB" style="stroke:#A80036;stroke-width:1.0;"/><polygon fill="#A80036" points="703.57,327.0892,710.1251,319.7386,705.0954,322.3276,702.5065,317.298,703.57,327.0892" style="stroke:#A80036;stroke-width:1.0;"/><!--MD5=[6d4cbf84f4cf6ad3afd973350e2af8e7]
link http_host_80_S_ExperimentC to S_ExperimentC--><path d="M508.93,163.5392 C510.33,190.6492 514.79,277.1292 517.09,321.8492 " fill="none" id="http_host_80_S_ExperimentC-to-S_ExperimentC" style="stroke:#A80036;stroke-width:1.0;"/><polygon fill="#A80036" points="517.36,327.0892,520.8911,317.8951,517.1025,322.0959,512.9017,318.3072,517.36,327.0892" style="stroke:#A80036;stroke-width:1.0;"/><!--MD5=[54d72fe8cca139b83df474b4fa76ff66]
link http_host_80_P_ExperimentA to P_ExperimentA--><path d="M1755.5,163.5392 C1742.45,190.7592 1700.71,277.8392 1679.35,322.3892 " fill="none" id="http_host_80_P_ExperimentA-to-P_ExperimentA" style="stroke:#A80036;stroke-width:1.0;"/><polygon fill="#A80036" points="1677.1,327.0892,1684.6059,320.7126,1679.2674,322.5834,1677.3966,317.2448,1677.1,327.0892" style="stroke:#A80036;stroke-width:1.0;"/><!--MD5=[1166b59581baa19e6a72a9c6e66153fb]
link http_host_80_P_ExperimentB to P_ExperimentB--><path d="M1508.6,163.5392 C1505.66,190.6492 1496.3,277.1292 1491.46,321.8492 " fill="none" id="http_host_80_P_ExperimentB-to-P_ExperimentB" style="stroke:#A80036;stroke-width:1.0;"/><polygon fill="#A80036" points="1490.89,327.0892,1495.8191,318.5626,1491.4186,322.1172,1487.864,317.7168,1490.89,327.0892" style="stroke:#A80036;stroke-width:1.0;"/><!--MD5=[19debfd3731cf404355880acad791359]
link http_host_80_P_ExperimentC to P_ExperimentC--><path d="M1261.69,163.5392 C1268.83,190.6992 1291.65,277.4892 1303.38,322.1192 " fill="none" id="http_host_80_P_ExperimentC-to-P_ExperimentC" style="stroke:#A80036;stroke-width:1.0;"/><polygon fill="#A80036" points="1304.69,327.0892,1306.2735,317.3685,1303.4203,322.2531,1298.5357,319.3999,1304.69,327.0892" style="stroke:#A80036;stroke-width:1.0;"/><!--MD5=[204b6fcfb907b570c506a57b2df2130f]
@startuml
title Overview of the Frinex build server when configured to deploy to separate tomcat servers for staging and production.

package "BuildServer" {
  GIT - [BuildProcess]
  [BuildProcess] - BuildListing
}

XML - -> GIT
JSON - -> GIT

package "Staging" {
  database "S_Postgres" {
    [S_ExperimentA_DB]
    [S_ExperimentB_DB]
    [S_ExperimentC_DB]
  }
  folder "S_Tomcat" {
    [S_ExperimentA] - -> S_ExperimentA_DB
    [S_ExperimentB] - -> S_ExperimentB_DB
    [S_ExperimentC] - -> S_ExperimentC_DB
  }
  [S_CRON] - -> S_Postgres 
}

package "Production" {
  database "P_Postgres" {
    [P_ExperimentA_DB]
    [P_ExperimentB_DB]
    [P_ExperimentC_DB]
  }
  folder "P_Tomcat" {
    [P_ExperimentA] - -> P_ExperimentA_DB
    [P_ExperimentB] - -> P_ExperimentB_DB
    [P_ExperimentC] - -> P_ExperimentC_DB
  }
  [P_CRON] - -> P_Postgres 
}

BuildServer - -> ElectronApps
BuildServer - -> MobileApps

BuildServer - -> Staging
BuildServer - -> Production

cloud WebAccess {
  http_host_80_S_ExperimentA - -> S_ExperimentA
  http_host_80_S_ExperimentB - -> S_ExperimentB
  http_host_80_S_ExperimentC - -> S_ExperimentC
  http_host_80_P_ExperimentA - -> P_ExperimentA
  http_host_80_P_ExperimentB - -> P_ExperimentB
  http_host_80_P_ExperimentC - -> P_ExperimentC
}

@enduml

PlantUML version 1.2021.00(Sun Jan 10 11:25:05 CET 2021)
(MIT source distribution)
Java Runtime: OpenJDK Runtime Environment
JVM: OpenJDK 64-Bit Server VM
Default Encoding: UTF-8
Language: en
Country: NL
--></g></svg>